<?xml version="1.0" encoding="UTF-8" standalone="no"?>
<!-- Created with Inkscape (http://www.inkscape.org/) -->

<svg
   xmlns:dc="http://purl.org/dc/elements/1.1/"
   xmlns:cc="http://creativecommons.org/ns#"
   xmlns:rdf="http://www.w3.org/1999/02/22-rdf-syntax-ns#"
   xmlns:svg="http://www.w3.org/2000/svg"
   xmlns="http://www.w3.org/2000/svg"
   xmlns:xlink="http://www.w3.org/1999/xlink"
   xmlns:sodipodi="http://sodipodi.sourceforge.net/DTD/sodipodi-0.dtd"
   xmlns:inkscape="http://www.inkscape.org/namespaces/inkscape"
   width="2800"
   height="2800"
   viewBox="0 0 740.83332 740.83335"
   version="1.1"
   id="svg8"
   inkscape:version="0.92.4 (5da689c313, 2019-01-14)"
   sodipodi:docname="Python_Ireland_Logo_PyCon_square.svg"
   inkscape:export-filename="Python_Ireland_Logo_OG_snakes_PyCon_Ireland.png"
   inkscape:export-xdpi="96"
   inkscape:export-ydpi="96">
  <defs
     id="defs2">
    <linearGradient
       inkscape:collect="always"
       id="linearGradient1074">
      <stop
         style="stop-color:#009a49;stop-opacity:1;"
         offset="0"
         id="stop1070" />
      <stop
         style="stop-color:#005c29;stop-opacity:1"
         offset="1"
         id="stop1072" />
    </linearGradient>
    <filter
       inkscape:collect="always"
       style="color-interpolation-filters:sRGB"
       id="filter1542"
       x="-0.072015785"
       width="1.1440316"
       y="-0.076947488"
       height="1.153895">
      <feGaussianBlur
         inkscape:collect="always"
         stdDeviation="12.886508"
         id="feGaussianBlur1544" />
    </filter>
    <linearGradient
       inkscape:collect="always"
       xlink:href="#linearGradient1074"
       id="linearGradient1076-3"
       x1="-191.29327"
       y1="-224.37971"
       x2="-287.84247"
       y2="809.24554"
       gradientUnits="userSpaceOnUse"
       gradientTransform="matrix(3.8572226,0,5.0217347e-8,3.8572225,-950.54627,-1299.0748)" />
    <linearGradient
       inkscape:collect="always"
       xlink:href="#linearGradient1074"
       id="linearGradient1500"
       gradientUnits="userSpaceOnUse"
       gradientTransform="matrix(3.0143027,0,3.9243337e-8,3.0143027,5056.1997,-57.803093)"
       x1="-191.29327"
       y1="-224.37971"
       x2="-287.84247"
       y2="809.24554" />
    <filter
       inkscape:collect="always"
       style="color-interpolation-filters:sRGB"
       id="filter1999"
       x="-0.040833188"
       width="1.0816664"
       y="-0.2660491"
       height="1.5320982">
      <feGaussianBlur
         inkscape:collect="always"
         stdDeviation="9.2629294"
         id="feGaussianBlur2001" />
    </filter>
  </defs>
  <sodipodi:namedview
     id="base"
     pagecolor="#ffffff"
     bordercolor="#666666"
     borderopacity="1.0"
     inkscape:pageopacity="0.0"
     inkscape:pageshadow="2"
     inkscape:zoom="0.25"
     inkscape:cx="-1182.768"
     inkscape:cy="2113.5077"
     inkscape:document-units="px"
     inkscape:current-layer="layer1"
     showgrid="false"
     units="px"
     inkscape:window-width="2880"
     inkscape:window-height="1694"
     inkscape:window-x="2869"
     inkscape:window-y="-11"
     inkscape:window-maximized="1"
     inkscape:snap-global="false" />
  <metadata
     id="metadata5">
    <rdf:RDF>
      <cc:Work
         rdf:about="">
        <dc:format>image/svg+xml</dc:format>
        <dc:type
           rdf:resource="http://purl.org/dc/dcmitype/StillImage" />
        <dc:title></dc:title>
      </cc:Work>
    </rdf:RDF>
  </metadata>
  <g
     inkscape:label="Layer 1"
     inkscape:groupmode="layer"
     id="layer1"
     transform="translate(0,443.83335)">
    <rect
       style="opacity:1;vector-effect:none;fill:url(#linearGradient1500);fill-opacity:1;stroke:none;stroke-width:10.80089283;stroke-linecap:butt;stroke-linejoin:miter;stroke-miterlimit:4;stroke-dasharray:none;stroke-dashoffset:0;stroke-opacity:1"
       id="rect1477"
       width="740.83331"
       height="740.83331"
       x="1.1005859e-05"
       y="-443.83334" />
    <path
       inkscape:connector-curvature="0"
       id="path1484"
       d="M 466.36962,94.669283 C 443.99995,91.790748 422.25498,82.090882 405.66357,67.586246 393.32962,56.803006 383.06586,42.130626 377.09415,26.744285 375.63425,22.978429 374.54576,21.375103 371.05074,17.840877 365.9591,12.687333 361.76766,6.9472468 358.52077,0.67272043 l -2.38848,-4.61187613 -0.004,5.3918728 c -0.0134,20.2417109 -8.80333,42.7960699 -23.39627,60.0338719 -12.90301,15.241853 -31.62033,26.40368 -51.31677,30.600766 -4.08569,0.871827 -7.90726,1.109124 -17.76038,1.088484 -11.07779,-0.016 -13.2398,-0.206337 -18.37322,-1.454741 C 231.57652,88.331849 219.46646,82.982299 207.56431,75.061684 198.30878,68.903257 185.3687,55.963172 179.21075,46.709487 170.78866,34.053129 164.81901,19.623209 162.2118,5.6209447 160.463,-3.7807847 160.60229,-22.60179 162.46973,-31.98238 c 8.35298,-41.44089 37.69206,-75.52087 75.9913,-88.27016 12.96021,-4.31786 18.18958,-5.12262 33.13228,-5.12262 9.24542,5.2e-4 14.44385,0.25794 17.45447,0.90278 3.63173,0.76349 4.66347,0.77897 6.73675,0.10317 4.98331,-1.66627 11.23255,-2.68254 18.98506,-3.09008 l 7.96194,-0.4127 -3.673,-2.06349 c -18.17771,-10.22766 -34.10263,-29.9339 -41.60235,-51.4818 -3.8484,-11.06181 -4.84918,-17.20065 -4.89561,-30.04789 -0.0299,-8.64599 0.20635,-12.63006 1.07301,-16.81944 3.86903,-19.09081 12.58671,-34.79183 26.91656,-48.46291 8.39166,-8.00631 16.03943,-13.4018 26.38315,-18.61363 9.16907,-4.6222 17.86613,-7.69782 27.9777,-9.90264 5.65343,-1.23293 8.09556,-1.39801 20.79732,-1.39801 12.68215,0 15.15678,0.15476 20.8231,1.39284 22.22575,4.81823 41.14787,15.50087 56.43775,31.86532 37.92781,40.59228 42.82445,100.53743 11.64732,142.58653 -2.76507,3.72461 -3.70911,5.55906 -4.05474,7.84334 -1.15039,7.66898 -6.38906,19.93695 -11.22018,26.2734 -1.25872,1.645622 -2.66705,3.513079 -3.13133,4.147598 -0.51587,0.686104 0.83571,0.103174 3.36863,-1.418645 8.31118,-5.055527 17.75367,-8.666113 28.87067,-11.032433 8.83944,-1.88293 28.61636,-2.04285 37.1798,-0.30952 23.10996,4.68413 43.49922,17.291486 56.98045,35.230874 19.7506,26.282555 23.49531,67.2968257 9.20003,100.764927 -15.35694,35.954611 -46.6615,59.087659 -86.65846,64.038939 -5.98668,0.742867 -22.95932,0.727377 -28.80052,-0.0248 z m 37.09521,-9.360419 c 13.78921,-2.935292 25.16002,-7.659075 36.42611,-15.138123 7.04317,-4.673773 19.69438,-17.121208 24.35062,-23.954942 16.39022,-24.053993 21.99103,-52.1689115 15.95019,-80.067693 -7.10612,-32.818636 -31.23182,-56.242244 -65.43969,-63.536135 -7.444,-1.583716 -26.92945,-1.573401 -34.29608,0.03251 -19.05624,4.142439 -33.07812,12.082195 -44.92147,25.439113 -17.8847,20.169488 -24.1159,47.811377 -17.13307,76.0005826 4.45195,17.9667244 18.60331,34.0768384 36.90639,42.0083384 15.51634,6.723854 35.14933,7.605477 51.38169,2.305944 32.17844,-10.504159 50.45728,-46.2410615 40.76305,-79.694212 -3.98768,-13.760329 -13.06236,-24.945427 -25.48039,-31.405668 -10.18019,-5.296442 -18.28037,-7.060718 -30.02673,-6.540206 -11.53228,0.515875 -18.70082,2.775386 -27.79406,8.773404 -13.54366,8.935392 -21.70008,23.668132 -22.6854,40.973007 -1.22261,21.4663858 10.44276,39.288664 30.10928,46.003232 4.18887,1.434121 5.91962,1.676577 11.94292,1.702372 11.31303,0.04387 18.69049,-2.86308 26.08394,-10.277167 9.15928,-9.1850691 13.4704,-23.6103398 11.05562,-36.99459 -1.18134,-6.534531 -3.673,-11.800536 -7.65036,-16.142619 -5.87112,-6.413302 -12.96536,-9.705072 -20.91544,-9.705072 -13.35536,0 -22.7963,9.016901 -24.78034,23.668139 -0.7996,5.917033 2.48649,8.948285 10.63725,9.799987 4.15791,0.464283 4.57576,-0.0092 2.14085,-2.280146 -4.08054,-3.812281 -5.2593,-10.574309 -2.64641,-15.221271 1.00594,-1.790071 2.15633,-2.765066 4.40037,-3.729744 12.92255,-5.559537 22.2175,-0.820235 26.88252,13.691718 2.04284,6.350877 2.048,16.6089534 0.0191,20.7343648 -2.96624,6.0176227 -8.51804,10.0218062 -16.49236,11.8908042 -19.22132,4.503546 -32.89911,-8.652174 -32.85836,-31.606841 0.0114,-6.23223 0.20635,-7.645199 1.84683,-12.275654 5.08131,-14.496991 16.17459,-22.632779 30.85213,-22.632779 14.26071,0 26.99755,8.522689 33.40569,22.353178 2.77022,5.980487 3.58529,10.432449 3.53371,19.292004 -0.0515,9.2619281 -1.3619,14.8823316 -5.35319,22.966015 -5.7473,11.645771 -15.18206,19.519499 -27.63516,23.063011 -6.86933,1.95515 -17.54372,1.95515 -24.46979,0.0039 -16.39849,-4.622197 -29.32465,-16.605347 -35.11684,-32.5601775 -4.07537,-11.2258466 -4.08569,-26.0854875 -0.0258,-38.2775715 8.48864,-25.495344 30.82892,-41.338751 58.29076,-41.338751 43.78139,0 72.10885,38.901263 60.79736,83.4925694 C 550.52149,25.823229 536.03121,43.516545 517.5481,52.48392 501.65208,60.196178 481.81634,61.974386 463.61336,57.317623 441.27672,51.605361 422.51969,35.875441 413.96243,15.678091 411.47077,9.7940743 409.93348,4.1349816 407.8958,-6.6358672 402.71181,-34.070366 394.78444,-57.177745 388.07142,-64.420052 l -2.47103,-2.66189 -3.2345,0.464283 c -1.77975,0.257938 -3.85871,0.85119 -4.6222,1.351583 -3.15712,2.068638 -6.82495,13.128897 -6.88893,20.785443 -0.0134,1.769435 -0.46428,3.090064 -1.47022,4.286883 -8.72027,10.419554 -10.22765,24.787576 -3.90514,37.2520277 3.10038,6.1135752 10.14769,14.9762213 14.39123,18.0972363 1.89325,1.392849 2.58967,2.512288 3.7091,5.992864 1.84682,5.730285 7.21909,16.538802 10.90551,21.936351 14.95043,21.890952 39.04879,37.492862 65.50571,42.411135 9.88097,1.836488 9.3517,1.800381 23.22706,1.588881 11.00144,-0.15477 13.93003,-0.412707 20.25307,-1.764271 z M 373.89267,-11.646254 c -1.71785,-0.655155 -3.6111,-2.790858 -3.98768,-4.508706 -0.46428,-2.001576 0.96983,-5.132908 2.72895,-6.074372 2.85792,-1.526976 6.19922,-0.464283 7.72155,2.491654 1.17103,2.26467 0.73253,4.807911 -1.13492,6.551552 -1.48054,1.382532 -3.89998,2.078957 -5.32687,1.542452 z M 278.81468,84.37154 c 17.11349,-3.317032 31.75853,-11.398614 44.435,-24.519732 11.88772,-12.304545 19.77898,-27.15593 23.45817,-44.147666 1.5734,-7.2696421 1.59404,-23.3467286 0.0423,-30.605536 -4.46742,-20.858189 -16.81685,-39.2046 -34.23469,-50.855531 -6.92246,-4.627355 -10.13117,-6.267308 -18.02089,-9.194871 -9.9434,-3.693629 -14.60171,-4.539661 -24.40943,-4.472598 -7.1479,0.05058 -9.59003,0.36111 -14.68425,1.671426 -23.23944,6.104806 -42.27866,24.878355 -49.57823,48.887478 -7.03801,23.1476142 -0.46428,47.376483 17.49007,64.461586 8.34472,7.941312 17.90018,13.301201 29.21063,16.384558 6.69342,1.82618 19.27137,1.815865 26.00192,-0.01648 14.75596,-4.018629 28.58953,-15.4565 35.31803,-29.19877 4.85435,-9.911415 6.4752,-17.3569673 5.99802,-27.5149625 -0.5778,-12.2663615 -5.41202,-23.4592005 -14.07607,-32.5797925 -11.30064,-11.89597 -26.51882,-17.902241 -40.86104,-16.125071 -10.34165,1.284518 -17.77328,4.885288 -25.18685,12.215805 -7.81957,7.731867 -11.58386,16.331945 -11.58386,26.463638 0,10.6403363 3.36346,18.5305656 11.32077,26.5704 12.449,12.57537 27.84051,16.333999 41.04215,10.022329 10.02078,-4.787276 16.42479,-15.3517799 15.3786,-25.362236 -1.17103,-11.212434 -12.94628,-23.556696 -19.32346,-20.25822 -2.30078,1.186502 -5.44089,4.49839 -6.8327,7.201034 l -1.17619,2.285305 1.57856,-0.598409 c 2.08929,-0.79444 7.71588,-0.763488 9.87789,0.05055 2.23372,0.840868 5.64671,4.085693 6.59075,6.2673061 0.94921,2.1924487 0.20635,8.06407899 -1.53213,11.9805628 -3.79165,8.5907841 -12.13069,11.6359661 -23.85281,8.7135601 -10.00066,-2.4968107 -15.93884,-6.6082943 -19.0774,-13.2191672 -4.54997,-9.5791888 -0.016,-24.8979588 9.41258,-31.8219728 9.10975,-6.688776 25.62017,-4.632517 38.25951,4.756326 8.41281,6.252351 14.23544,17.196539 14.26639,26.8139018 0.014,4.0856894 -2.12538,11.7896912 -4.37458,15.7784002 -4.73053,8.377735 -14.66721,15.530791 -24.48165,17.624712 -18.94481,4.03926 -41.35009,-8.126506 -50.74099,-27.5583027 -3.14681,-6.5133742 -4.27657,-11.5508441 -4.28689,-19.1516743 -0.0186,-12.206525 4.66347,-23.132146 13.83719,-32.307933 20.90616,-20.906158 54.56514,-19.368867 76.95184,3.513077 7.25881,7.420797 12.49231,16.595553 15.27131,26.775739 2.01705,7.3805564 2.04284,21.839875 0.0515,29.102807 -5.3279,19.474621 -18.17153,35.147784 -35.66366,43.521397 -10.09403,4.833703 -23.54379,6.736751 -34.30329,4.859493 -36.69386,-6.411754 -62.92947,-38.661378 -61.07131,-75.072518 1.55794,-30.505483 23.71456,-59.774415 52.5904,-69.467612 8.82964,-2.961093 13.02159,-3.611093 23.15535,-3.574983 11.38267,0.03815 15.23209,0.866662 34.31775,7.422858 22.65444,7.778292 39.45065,11.406408 50.98448,11.012796 8.19203,-0.309519 9.59313,-0.969834 10.68522,-5.303141 0.77897,-3.084905 0.74286,-3.440858 -0.66546,-6.518027 -1.70238,-3.719425 -7.14997,-9.333635 -12.1993,-12.572785 -2.7238,-1.743645 -3.53888,-2.682527 -4.40554,-5.055528 -3.79165,-10.389676 -12.83072,-18.001386 -24.2686,-20.435796 -7.7721,-1.65595 -23.30082,-0.25792 -28.93826,2.64644 -1.54761,0.78929 -2.40911,0.76349 -7.6555,-0.25794 -9.1175,-1.72818 -26.97331,-1.56825 -35.84732,0.30953 -41.29903,8.7688 -73.23654,41.506486 -82.54078,84.610028 -1.1865,5.504338 -1.38769,8.237936 -1.38769,18.985062 0,14.1709488 0.86666,19.6990108 4.89045,31.268431 11.60295,33.334505 40.57371,58.558438 75.23143,65.502019 7.8665,1.578561 21.62372,1.599181 29.60887,0.0506 z m 41.07101,-184.323442 c -1.55793,-1.392858 -1.97062,-2.244038 -1.97062,-4.054758 0,-1.81587 0.41269,-2.66706 1.97062,-4.05477 2.14603,-1.91904 3.48728,-2.15118 5.94799,-1.02658 1.61983,0.7377 3.35316,3.33254 3.35316,5.02976 0,2.87341 -3.11069,5.87733 -6.08417,5.87733 -0.68611,0 -2.13055,-0.794434 -3.21388,-1.759118 z M 491.17318,5.7034847 c 5.57501,-1.4857054 9.28257,-4.2404506 10.67903,-7.9366593 1.67659,-4.4416396 0.0114,-14.5506304 -3.36347,-20.3969884 -1.51665,-2.62578 -4.5087,-4.519026 -7.14686,-4.519026 -0.81508,0 -2.77024,0.464284 -4.3488,0.980154 -2.68251,0.913092 -2.86306,1.114281 -2.86306,3.131334 0,1.821023 0.56229,2.713479 3.6214,5.732867 4.12696,4.075374 4.93171,6.226554 3.42022,9.1520537 -1.60952,3.1158522 -5.56986,4.5706063 -12.24366,4.4880672 -3.03333,-0.0356 -6.30807,-0.4126956 -7.281,-0.7686463 -0.975,-0.4126957 -1.90356,-0.5726157 -2.06349,-0.4126957 -0.51586,0.5158707 2.70833,5.45687153 4.93174,7.5925733 3.771,3.6214059 10.00426,4.7253683 16.66414,2.9559345 z M 274.06611,4.2384143 c 3.59046,-1.7952278 6.28123,-8.9358997 4.16307,-11.0530295 -1.01111,-1.0059454 -4.70474,-0.9234074 -7.83917,0.206348 -4.9214,1.7384811 -7.84432,1.0420574 -9.55547,-2.2646688 -1.94483,-3.755534 0.15477,-10.032127 5.57708,-16.690467 l 2.77023,-3.399586 h -3.45633 c -4.78212,0 -7.81544,1.042058 -10.88538,3.74522 -5.44243,4.787277 -8.18171,15.6535672 -5.34752,21.2089703 2.05317,4.02378546 5.54045,6.2900022 12.50212,8.1146343 5.59462,1.4650711 9.34911,1.5114981 12.07395,0.1547607 z M 356.3309,-33.761101 c 0.86666,-2.120228 2.66188,-5.4868 3.99283,-7.477543 1.90356,-2.847605 2.5123,-4.441645 2.85792,-7.472898 0.25794,-2.120229 0.95952,-5.895882 1.59404,-8.393723 0.63452,-2.501968 1.06786,-4.627355 0.96468,-4.730528 -0.10316,-0.103184 -1.2742,0.103173 -2.60514,0.515867 -5.35319,1.485708 -28.10461,-0.789283 -35.55893,-3.559504 -0.63453,-0.257937 1.32577,2.182133 4.3591,5.371242 8.86729,9.328997 16.46967,21.987938 19.9621,33.237527 l 1.44444,4.653152 0.70159,-4.132123 c 0.4127,-2.26983 1.41348,-5.8639 2.28014,-7.985676 z m 55.95024,-13.29037 c 3.72459,-11.573546 11.35019,-24.104551 20.24688,-33.277243 2.95078,-3.04363 4.53967,-5.019417 3.52856,-4.390054 -4.21466,2.610306 -11.37237,4.421006 -18.37324,4.653148 -6.21107,0.206347 -7.16647,0.412701 -12.2483,2.594827 -6.10946,2.630937 -10.18586,3.776173 -13.37497,3.776173 H 389.945 l 3.51824,3.595614 c 4.44679,4.544819 9.19332,13.825322 12.9504,25.327681 l 2.69801,8.251864 0.7996,-2.816654 c 0.46428,-1.552769 1.50633,-5.024578 2.37815,-7.716388 z m -35.20245,-26.598784 c 0.7738,-0.309519 2.20276,-0.742858 3.17775,-0.954362 l 1.76944,-0.412693 -1.46508,-0.980157 c -0.80475,-0.536504 -2.31625,-1.769433 -3.35316,-2.744425 l -1.88808,-1.764275 v 3.698787 c 0,2.032527 0.10317,3.698787 0.15476,3.698787 0.10316,0 0.80993,-0.257937 1.58373,-0.567457 z m 21.30182,-9.532252 c 2.47102,-0.835709 5.97017,-2.357528 7.77675,-3.38411 3.10553,-1.753953 3.53886,-1.836497 8.01662,-1.475386 10.02955,0.799599 18.07918,-2.238875 25.36172,-9.575069 3.89483,-3.925778 5.2335,-5.828838 7.78139,-11.078878 3.30158,-6.8054 5.57914,-14.07663 5.57914,-17.81723 0,-1.85198 0.57777,-3.02301 2.86824,-5.83091 27.39425,-33.58006 28.51576,-83.1165 2.74958,-121.43791 -16.23907,-24.1515 -39.42073,-39.53733 -66.55242,-44.1714 -9.63697,-1.64563 -27.36794,-1.32063 -36.33274,0.66547 -13.73143,3.03848 -27.39993,9.07675 -38.66343,17.07532 -7.15822,5.08132 -17.74646,15.44721 -22.03282,21.56698 -23.33435,33.3118 -18.33145,79.23715 11.89905,109.22366 11.31408,11.22275 24.40583,18.28399 40.11615,21.63717 7.32432,1.56309 23.96216,1.54762 31.21789,-0.033 16.00951,-3.48215 29.16523,-10.37058 40.75579,-21.34004 7.03802,-6.66092 11.02468,-11.96252 14.65537,-19.49113 11.47347,-23.79038 7.03543,-52.98297 -11.33418,-74.55511 -18.97629,-22.28354 -49.82998,-28.91556 -76.28844,-16.39899 -7.18917,3.40473 -12.12347,6.77749 -17.83983,12.20754 -7.41925,7.04782 -11.34502,13.24497 -14.59757,23.04599 -1.59921,4.82339 -1.72818,5.92116 -1.74881,15.0046 -0.0164,8.39939 0.15477,10.49023 1.37222,14.63421 5.75453,19.99977 20.42537,35.02192 39.01114,39.94487 6.49635,1.723 19.76762,1.58887 26.33413,-0.25794 22.17623,-6.26834 36.46018,-23.65936 36.56282,-44.51754 0.10317,-19.11093 -11.8779,-34.89038 -29.26686,-38.57368 -7.72463,-1.63531 -16.02498,-0.73254 -23.96939,2.60514 -14.6239,6.14402 -23.45765,17.96777 -23.4334,31.36285 0.0191,10.80954 6.6279,21.10373 15.74178,24.52189 6.28071,2.35237 15.54832,1.56825 22.34388,-1.90356 4.323,-2.20276 5.23866,-6.48604 2.59483,-12.16112 -2.44523,-5.25775 -2.74443,-5.40581 -3.91546,-1.95515 -2.1357,6.31682 -5.58171,9.3811 -10.96173,9.7551 -3.2345,0.25794 -3.6833,0.10317 -6.86364,-2.20792 -7.54821,-5.43728 -10.16729,-12.85755 -7.27068,-20.59922 2.35237,-6.29051 9.95784,-14.43766 16.48206,-17.65876 3.53886,-1.74363 4.53965,-1.9603 9.18661,-1.94997 6.95857,0.0164 10.63827,1.81585 16.64249,8.1363 6.15587,6.48036 7.5575,9.74581 7.5575,17.60562 0,5.86234 -0.10316,6.37409 -2.25952,10.73371 -3.09521,6.26008 -9.82268,12.96278 -17.02939,16.96336 -11.40227,6.32973 -25.49688,6.12132 -35.45008,-0.52619 -9.25678,-6.18167 -14.73842,-16.97471 -14.7606,-29.06516 -0.0114,-6.19715 1.15039,-10.81934 4.39006,-17.42816 7.39706,-15.1052 28.07985,-26.18403 46.47578,-24.89538 19.40497,1.35674 35.1514,14.99531 40.41586,34.99869 1.7849,6.78112 1.77974,17.64122 -0.004,24.49713 -5.07616,19.48855 -20.65596,34.35284 -42.18322,40.25181 -7.04936,1.92935 -22.21905,1.90873 -29.50416,-0.0381 -21.31782,-5.70501 -38.54015,-23.57683 -44.84718,-46.53666 -1.77459,-6.45612 -1.92936,-23.46281 -0.25794,-29.50469 3.56983,-13.00559 8.21678,-20.72663 18.24582,-30.32646 20.15556,-19.29303 49.98782,-25.58561 75.55951,-15.93884 33.76887,12.73942 55.12486,51.90274 47.75618,87.57672 -3.18808,15.42761 -9.65143,26.41668 -23.25544,39.52959 -28.13195,27.11682 -40.6774,42.839597 -42.29001,52.998107 -0.36111,2.347213 -0.25794,2.605149 2.40911,5.05037 2.67737,2.471024 2.97142,2.579354 6.68671,2.579354 2.53293,0 5.44965,-0.526189 8.3798,-1.526976 z m 21.88012,-22.976383 c -2.06864,-1.625 -2.62062,-4.28174 -1.38768,-6.66662 1.77974,-3.43571 5.76071,-4.19405 8.71149,-1.66111 3.75038,3.2242 1.27936,9.55758 -3.72974,9.55758 -1.11428,0 -2.73412,-0.55199 -3.59562,-1.23293 z m -44.53301,7.474997 c 2.41943,-5.171617 7.34548,-12.437687 13.1387,-19.383407 2.51745,-3.01785 4.5087,-5.55028 4.43132,-5.62869 -0.10316,-0.10318 -1.73332,0.4127 -3.67815,1.02143 -9.29289,3.06429 -15.52099,3.95674 -27.36589,3.91547 -7.74425,-0.0258 -12.75798,-0.36111 -15.84289,-0.98531 l -4.51386,-0.94921 2.06349,1.57341 c 4.72536,3.59564 9.61736,9.87123 12.19413,15.62632 0.79959,1.78492 2.47618,3.564676 5.60905,5.96502 2.4607,1.882928 5.84791,5.05037 7.53223,7.043177 l 3.06426,3.62141 0.7377,-3.894819 c 0.4127,-2.140858 1.58888,-5.710684 2.62579,-7.928929 z m 15.06392,-97.111207 c 1.85713,-3.98768 1.96031,-9.35273 0.25794,-13.10207 -1.56309,-3.44602 -6.84869,-8.97202 -10.07339,-10.53303 -5.81852,-2.81666 -11.90835,-0.80993 -18.1865,6.00059 -5.64311,6.11925 -7.15821,10.26634 -5.16128,14.12763 1.07816,2.08927 4.94204,5.57242 6.17703,5.57242 2.20276,0 3.76585,-3.00235 4.83886,-9.3032 0.46429,-2.81665 3.33768,-5.39549 5.98307,-5.39549 2.40396,0 5.45893,1.89841 7.79841,4.85435 1.93452,2.44522 5.54559,9.57196 5.54663,10.95089 5.2e-4,1.49603 1.34642,-0.0206 2.81149,-3.1726 z"
       style="fill:#003e1b;fill-opacity:1;stroke-width:0.61243284;filter:url(#filter1542)" />
    <path
       style="fill:#ffffff;stroke-width:0.57050502"
       d="M 454.87117,67.193786 C 434.03295,64.512324 413.77667,55.476525 398.32112,41.964818 386.83157,31.919816 377.27048,18.251921 371.7076,3.9189496 c -1.35996,-3.50803984 -2.37393,-5.0015992 -5.62968,-8.293866 -4.74306,-4.8007243 -8.64755,-10.1478386 -11.67215,-15.9928076 l -2.22496,-4.296145 -0.004,5.022742 c -0.0125,18.85594042 -8.20064,39.866197 -21.79453,55.923883 -12.01966,14.198423 -29.45557,24.596116 -47.80357,28.505875 -3.80598,0.812137 -7.36592,1.033184 -16.54449,1.013964 -10.31939,-0.0149 -12.33339,-0.19222 -17.11537,-1.355151 C 236.15199,61.290222 224.871,56.306909 213.78368,48.928517 205.16207,43.191674 193.10788,31.137476 187.37151,22.517308 179.526,10.727418 173.96504,-2.7146063 171.53633,-15.758258 c -1.62908,-8.758082 -1.49933,-26.290588 0.24027,-35.028973 7.78112,-38.603799 35.11162,-70.350709 70.78885,-82.227169 12.07294,-4.02225 16.9443,-4.77192 30.86401,-4.77192 8.61247,4.9e-4 13.45501,0.24029 16.25952,0.84098 3.38309,0.71122 4.3442,0.72564 6.27554,0.0961 4.64215,-1.5522 10.46356,-2.49889 17.68532,-2.87854 l 7.41686,-0.38444 -3.42154,-1.92222 c -16.93325,-9.52748 -31.76793,-27.88461 -38.75421,-47.95731 -3.58493,-10.30451 -4.5172,-16.02308 -4.56045,-27.99078 -0.0279,-8.05408 0.19222,-11.76539 0.99955,-15.66796 3.60415,-17.78384 11.72501,-32.40995 25.07382,-45.14509 7.81716,-7.45819 14.94136,-12.4843 24.57693,-17.33932 8.54135,-4.30576 16.643,-7.17082 26.06232,-9.2247 5.26639,-1.14852 7.54133,-1.3023 19.37351,-1.3023 11.81392,0 14.11913,0.14417 19.39753,1.29749 20.70415,4.48837 38.33084,14.43966 52.57396,29.68378 35.33123,37.81329 39.89264,93.65453 10.84993,132.82492 -2.57577,3.46961 -3.45518,5.17847 -3.77715,7.30637 -1.07163,7.14395 -5.95165,18.57204 -10.45203,24.47472 -1.17255,1.53296 -2.48446,3.27258 -2.91696,3.86367 -0.48055,0.63913 0.7785,0.0961 3.13801,-1.32154 7.74219,-4.70944 16.53824,-8.07285 26.89416,-10.27717 8.23428,-1.75402 26.65725,-1.903 34.63443,-0.28833 21.52782,4.36345 40.52121,16.10776 53.0795,32.819011 18.39846,24.483223 21.8868,62.689617 8.57019,93.8664525 -14.30559,33.4931205 -43.467,55.0425195 -80.72573,59.6548325 -5.57682,0.692007 -21.3875,0.677577 -26.8288,-0.0231 z m 34.55563,-8.719589 c 12.84519,-2.734335 23.43754,-7.134745 33.93234,-14.101806 6.56099,-4.353815 18.34608,-15.949083 22.68355,-22.314972 15.26813,-22.40722491 20.4855,-48.597368 14.85822,-74.586175 -6.61962,-30.571834 -29.09365,-52.391864 -60.95961,-59.186444 -6.93438,-1.4753 -25.08583,-1.46569 -31.94814,0.0303 -17.75163,3.85887 -30.81355,11.2551 -41.84609,23.697589 -16.6603,18.788663 -22.4649,44.538155 -15.96013,70.797509 4.14717,16.73670009 17.32971,31.743892 34.37974,39.132393 14.45408,6.263532 32.74297,7.084798 47.86405,2.148077 29.97547,-9.785029 47.00292,-43.075337 37.97236,-74.238259 -3.71468,-12.818279 -12.16809,-23.237633 -23.73597,-29.255599 -9.48324,-4.933842 -17.02888,-6.577334 -27.97107,-6.092456 -10.74277,0.480557 -17.42054,2.58538 -25.89125,8.172767 -12.61644,8.323665 -20.21447,22.047783 -21.13233,38.167949 -1.13891,19.996782 9.72784,36.5989284 28.04797,42.8538056 3.90209,1.3359384 5.51435,1.5617961 11.12529,1.5858251 10.53853,0.04087 17.41092,-2.6670695 24.29821,-9.5735752 8.53222,-8.5562465 12.5482,-21.9939555 10.29874,-34.4619095 -1.10047,-6.087171 -3.42155,-10.992661 -7.12661,-15.03748 -5.46918,-5.974238 -12.07774,-9.040649 -19.48355,-9.040649 -12.44104,0 -21.23564,8.399591 -23.08385,22.04779 -0.74486,5.511949 2.31626,8.335679 9.90901,9.129072 3.87326,0.432498 4.2625,-0.0086 1.99429,-2.124045 -3.80118,-3.551289 -4.89924,-9.850384 -2.46524,-14.17921 0.93708,-1.66752 2.00871,-2.575766 4.09912,-3.474401 12.03786,-5.178925 20.69647,-0.76408 25.04211,12.754369 1.90299,5.916092 1.9078,15.471893 0.0178,19.314877 -2.76317,5.605653 -7.93489,9.335707 -15.36328,11.0767497 -17.90541,4.1952266 -30.6468,-8.0598377 -30.60884,-29.4430137 0.0106,-5.805566 0.19222,-7.121802 1.72039,-11.435251 4.73344,-13.504509 15.06726,-21.083312 28.73996,-21.083312 13.28441,0 25.14927,7.939217 31.1187,20.822852 2.58057,5.571057 3.33984,9.718233 3.29179,17.971257 -0.048,8.627851 -1.26866,13.863478 -4.9867,21.393747 -5.35384,10.84848243 -14.14268,18.1831622 -25.74323,21.484081 -6.39905,1.821298 -16.34266,1.821298 -22.79456,0.0036 -15.27583,-4.3057542 -27.31705,-15.4685187 -32.7127,-30.331065 -3.79637,-10.457318 -3.80598,-24.299657 -0.024,-35.657058 7.9075,-23.749902 28.71834,-38.508652 54.30011,-38.508652 40.78407,0 67.1722,36.238038 56.63511,77.776587 -4.65656,18.3508772 -18.15482,34.832885 -35.37256,43.186344 -14.80776,7.18427 -33.28552,8.840738 -50.24231,4.50278 -20.80748,-5.32116 -38.28039,-19.974192 -46.25181,-38.7888006 -2.32107,-5.4811874 -3.75312,-10.7528564 -5.6513,-20.7863264 -4.82909,-25.556309 -12.21374,-47.081729 -18.46718,-53.82822 l -2.30186,-2.479654 -3.01306,0.432498 c -1.65791,0.240279 -3.59454,0.792916 -4.30576,1.259052 -2.94098,1.927017 -6.35771,12.230078 -6.41731,19.362449 -0.0125,1.648298 -0.43249,2.878514 -1.36957,3.993397 -8.12327,9.706218 -9.52745,23.090594 -3.63779,34.70172 2.88813,5.695036 9.45297,13.9509396 13.406,16.8582847 1.76363,1.2974925 2.41237,2.3402929 3.45517,5.5825831 1.72038,5.3379798 6.72486,15.4065302 10.1589,20.4345572 13.92691,20.392276 36.37547,34.926126 61.02112,39.507692 9.20451,1.710758 8.71147,1.677118 21.63691,1.480101 10.24827,-0.14417 12.97637,-0.384447 18.86652,-1.643481 z M 368.72529,-31.843334 c -1.60024,-0.610303 -3.36388,-2.599793 -3.71468,-4.200036 -0.43249,-1.864547 0.90344,-4.781506 2.54213,-5.658516 2.66226,-1.422438 5.77481,-0.432498 7.19292,2.321073 1.09086,2.10963 0.68238,4.478758 -1.05722,6.103028 -1.37918,1.287882 -3.63298,1.936629 -4.96219,1.436854 z m -88.56884,89.444377 c 15.94188,-3.089945 29.5843,-10.618291 41.39293,-22.841155 11.07387,-11.462159 18.42489,-25.2968014 21.8522,-41.1252556 1.46568,-6.7719524 1.48491,-21.7483934 0.0394,-28.5102564 -4.16158,-19.430218 -15.66555,-36.520611 -31.89095,-47.373907 -6.44854,-4.310561 -9.43758,-5.838241 -16.78716,-8.56538 -9.26266,-3.440759 -13.60206,-4.228871 -22.73833,-4.166399 -6.65855,0.04712 -8.93349,0.336388 -13.67895,1.556998 -21.64844,5.686865 -39.38422,23.175156 -46.18405,45.540586 -6.55618,21.562909 -0.4325,44.1330479 16.29268,60.048478 7.77343,7.397641 16.67471,12.390586 27.21084,15.262853 6.23518,1.701158 17.95203,1.691549 24.2218,-0.01535 13.74575,-3.74351 26.63226,-14.398332 32.90012,-27.19978524 4.52201,-9.23286386 6.0319,-16.16868676 5.58739,-25.63125976 -0.53825,-11.426597 -5.04151,-21.853165 -13.11241,-30.349351 -10.52699,-11.081557 -24.70331,-16.676632 -38.06365,-15.021129 -9.63365,1.196579 -16.5565,4.550836 -23.46253,11.379497 -7.28423,7.202534 -10.79082,15.213841 -10.79082,24.65191 0,9.911891 3.1332,17.261951 10.54574,24.751373 11.59673,11.7144398 25.93452,15.215747 38.23236,9.33618442 9.33475,-4.45953152 15.30033,-14.30077742 14.32577,-23.62591242 -1.09086,-10.444823 -12.05997,-21.943987 -18.00056,-18.871328 -2.14327,1.105273 -5.0684,4.190427 -6.36493,6.708046 l -1.09566,2.128851 1.47049,-0.557441 c 1.94625,-0.740052 7.18764,-0.711219 9.20164,0.04709 2.08079,0.783301 5.26013,3.805981 6.13954,5.83824 0.88422,2.042352 0.19222,7.512008 -1.42724,11.160367 -3.53207,8.0026536 -11.30021,10.8393581 -22.21982,8.1170246 -9.31601,-2.3258766 -14.84765,-6.1558866 -17.77134,-12.3141756 -4.23848,-8.923392 -0.0149,-23.193424 8.76818,-29.643413 8.48609,-6.230855 23.86619,-4.31537 35.64022,4.430703 7.83686,5.824309 13.26087,16.019247 13.2897,24.9782 0.013,3.805981 -1.97987,10.982563 -4.07509,14.6981994 -4.40667,7.80418136 -13.66308,14.4675274 -22.80561,16.4180955 -17.64783,3.7627271 -38.51922,-7.5701528 -47.26721,-25.6716249 -2.93137,-6.067465 -3.98379,-10.760067 -3.9934,-17.840537 -0.0173,-11.370855 4.3442,-21.548497 12.88988,-30.096097 19.4749,-19.4749 50.82955,-18.042854 71.68363,3.272568 6.76187,6.912758 11.63708,15.459402 14.22582,24.942643 1.87896,6.875275 1.90299,20.344701 0.048,27.1104083 -4.96315,18.1413566 -16.92749,32.7415167 -33.22209,40.5418627 -9.40298,4.50278 -21.93196,6.275543 -31.95485,4.526809 -34.18176,-5.9728 -58.62125,-36.01457391 -56.8903,-69.932974 1.45128,-28.417044 22.09103,-55.682193 48.99,-64.711783 8.22515,-2.758386 12.13012,-3.363886 21.57011,-3.330246 10.6034,0.0355 14.18929,0.80733 31.96832,6.914691 21.10349,7.245782 36.74982,10.625513 47.49403,10.258848 7.63119,-0.288329 8.93637,-0.903438 9.9537,-4.940082 0.72564,-2.873709 0.692,-3.205293 -0.61991,-6.071796 -1.58583,-3.464789 -6.66047,-8.694671 -11.36412,-11.712081 -2.53732,-1.62428 -3.2966,-2.49889 -4.10393,-4.70945 -3.53207,-9.6784 -11.95232,-16.769 -22.60715,-19.03674 -7.24001,-1.54259 -21.70562,-0.24028 -26.95711,2.46525 -1.44166,0.73525 -2.24418,0.71122 -7.1314,-0.24028 -8.4933,-1.60986 -25.12669,-1.46089 -33.39317,0.28834 -38.47165,8.16848 -68.22269,38.664989 -76.88995,78.817614 -1.10527,5.127505 -1.29269,7.673959 -1.29269,17.685326 0,13.200797 0.80733,18.350405 4.55565,29.127768 10.8086,31.052381 37.79599,54.549505 70.081,61.017736 7.32795,1.470491 20.14334,1.489701 27.58182,0.0471 z m 38.25924,-171.704603 c -1.45127,-1.2975 -1.83571,-2.09041 -1.83571,-3.77717 0,-1.69155 0.38444,-2.48447 1.83571,-3.77717 1.99911,-1.78766 3.24854,-2.00391 5.54078,-0.95631 1.50894,0.6872 3.1236,3.1044 3.1236,4.68543 0,2.67669 -2.89773,5.47497 -5.66764,5.47497 -0.63914,0 -1.98469,-0.74005 -2.99385,-1.6387 z m 159.56096,98.422191 c 5.19334,-1.383993 8.64708,-3.950147 9.94793,-7.393311 1.56181,-4.137563 0.0106,-13.554484 -3.1332,-19.000596 -1.41282,-2.446017 -4.20003,-4.209649 -6.65758,-4.209649 -0.75928,0 -2.58058,0.432499 -4.05107,0.913052 -2.49887,0.85058 -2.66706,1.037995 -2.66706,2.916959 0,1.696354 0.5238,2.527712 3.37348,5.340391 3.84442,3.796371 4.59408,5.800278 3.18607,8.525496 -1.49933,2.90254 -5.18854,4.257701 -11.40545,4.180812 -2.82566,-0.03316 -5.87621,-0.384442 -6.78253,-0.716024 -0.90825,-0.384443 -1.77324,-0.533414 -1.92222,-0.384443 -0.48055,0.480554 2.52291,5.083292 4.5941,7.072782 3.51284,3.373483 9.31936,4.401867 15.5233,2.75357 z M 275.73297,-17.04614 c 3.34465,-1.672325 5.85121,-8.324143 3.87806,-10.296333 -0.94189,-0.937078 -4.38265,-0.86019 -7.30249,0.192221 -4.58448,1.619464 -7.30729,0.970718 -8.90129,-2.109628 -1.81169,-3.498427 0.14417,-9.34532 5.19526,-15.547823 l 2.58058,-3.166848 h -3.21971 c -4.45473,0 -7.28038,0.970719 -10.14015,3.488818 -5.06984,4.459537 -7.62158,14.581912 -4.98142,19.756989 1.9126,3.748315 5.16114,5.859385 11.64621,7.559102 5.2116,1.364771 8.70906,1.40802 11.24735,0.144166 z m 76.63285,-35.398039 c 0.80733,-1.975074 2.47965,-5.111166 3.71948,-6.96562 1.77324,-2.652654 2.3403,-4.137564 2.66226,-6.961294 0.24028,-1.975076 0.89383,-5.492244 1.48491,-7.81908 0.59108,-2.330681 0.99475,-4.310561 0.89864,-4.406671 -0.0961,-0.09612 -1.18697,0.09611 -2.42679,0.48055 -4.98671,1.383995 -26.18054,-0.735248 -33.12453,-3.315816 -0.59109,-0.240279 1.23501,2.032742 4.06067,5.003521 8.26023,8.690323 15.34214,20.482617 18.59548,30.962046 l 1.34555,4.334594 0.65356,-3.849234 c 0.38444,-2.114436 1.31671,-5.462452 2.12404,-7.438968 z m 52.11983,-12.380494 c 3.4696,-10.781208 10.57314,-22.454327 18.86075,-30.999046 2.74877,-2.83526 4.22888,-4.675781 3.28699,-4.089507 -3.92612,2.431602 -10.5938,4.11834 -17.11538,4.334589 -5.78586,0.19222 -6.67585,0.384447 -11.40977,2.417182 -5.6912,2.45082 -9.48853,3.517652 -12.45931,3.517652 h -1.97027 l 3.27738,3.349455 c 4.14236,4.233675 8.56394,12.878825 12.0638,23.59372 l 2.5133,7.68693 0.74486,-2.623822 c 0.4325,-1.446464 1.40321,-4.680588 2.21534,-7.188114 z m -32.79246,-24.777802 c 0.72083,-0.288329 2.05196,-0.692001 2.9602,-0.889025 l 1.6483,-0.38444 -1.36477,-0.913054 c -0.74966,-0.499775 -2.15768,-1.648296 -3.1236,-2.556539 l -1.75882,-1.643491 v 3.445564 c 0,1.893378 0.0961,3.445564 0.14416,3.445564 0.0961,0 0.75448,-0.240278 1.47531,-0.528608 z m 19.84348,-8.879664 c 2.30185,-0.778495 5.56144,-2.196131 7.24434,-3.152441 2.89293,-1.63388 3.29659,-1.71077 7.4678,-1.37438 9.34291,0.74486 16.84146,-2.08561 23.62543,-8.9196 3.62818,-3.65703 4.87521,-5.42981 7.24866,-10.32042 3.07555,-6.3395 5.19719,-13.11293 5.19719,-16.59745 0,-1.72519 0.53822,-2.81605 2.67188,-5.43172 25.51881,-31.28114 26.56354,-77.42626 2.56134,-113.12415 -15.12733,-22.49806 -36.72195,-36.83056 -61.99617,-41.14737 -8.97721,-1.53297 -25.4943,-1.23022 -33.84536,0.61991 -12.79136,2.83046 -25.5241,8.45534 -36.01649,15.90632 -6.66816,4.73345 -16.53152,14.38968 -20.52443,20.09048 -21.73686,31.03124 -17.07646,73.81249 11.08443,101.74609 10.5395,10.45443 22.73498,17.03226 37.36975,20.15588 6.82289,1.45608 22.32169,1.44167 29.08068,-0.0308 14.91348,-3.24376 27.16855,-9.66061 37.96561,-19.87909 6.55619,-6.2049 10.26991,-11.14355 13.65204,-18.15674 10.68799,-22.16167 6.55378,-49.3557 -10.55823,-69.45099 -17.67715,-20.75798 -46.41856,-26.93597 -71.06565,-15.2763 -6.69699,3.17164 -11.29348,6.3135 -16.61849,11.3718 -6.91132,6.56532 -10.56833,12.33821 -13.59821,21.46824 -1.48972,4.49317 -1.60986,5.51579 -1.62908,13.97737 -0.0153,7.82436 0.14417,9.77205 1.27827,13.63233 5.36057,18.63057 19.02703,32.62428 36.3404,37.2102 6.0516,1.60505 18.41431,1.4801 24.53127,-0.24028 20.65802,-5.8392 33.96407,-22.03961 34.05969,-41.46982 0.0961,-17.80257 -11.06473,-32.50174 -27.26322,-35.93288 -7.1958,-1.52336 -14.9279,-0.68239 -22.32842,2.42679 -13.62273,5.72339 -21.85172,16.73767 -21.82913,29.21571 0.0178,10.06951 6.17415,19.65895 14.66408,22.8431 5.85073,2.19132 14.48387,1.46088 20.8142,-1.77324 4.02704,-2.05196 4.88001,-6.042 2.41718,-11.32856 -2.27782,-4.8978 -2.55654,-5.03572 -3.6474,-1.8213 -1.98949,5.88437 -5.19958,8.73886 -10.21128,9.08726 -3.01306,0.24028 -3.43114,0.0961 -6.39375,-2.05677 -7.03145,-5.06503 -9.47122,-11.9773 -6.77292,-19.18897 2.19133,-5.85986 9.27612,-13.44924 15.35368,-16.44982 3.29659,-1.62426 4.22886,-1.8261 8.55769,-1.81648 6.48218,0.0153 9.90996,1.69154 15.50312,7.57928 5.73444,6.03671 7.04011,9.07861 7.04011,16.40032 0,5.461 -0.0961,5.93772 -2.10483,9.99887 -2.88331,5.83151 -9.15021,12.07534 -15.86354,15.80203 -10.62166,5.89639 -23.75134,5.70225 -33.02313,-0.49016 -8.62305,-5.75847 -13.72941,-15.81261 -13.75007,-27.07533 -0.0106,-5.77289 1.07163,-10.07864 4.08951,-16.23501 6.89065,-14.07108 26.15747,-24.39144 43.294,-23.19102 18.07648,1.26386 32.74489,13.96872 37.64894,32.60265 1.66271,6.31687 1.6579,16.43348 -0.004,22.82003 -4.72864,18.15434 -19.24183,32.001 -39.29531,37.49612 -6.56676,1.79727 -20.69791,1.77806 -27.48428,-0.0355 -19.85838,-5.31444 -35.90165,-21.96273 -41.77689,-43.35071 -1.6531,-6.01412 -1.79727,-21.85652 -0.24028,-27.48476 3.32543,-12.11522 7.65425,-19.30767 16.99669,-28.25028 18.77569,-17.97221 46.5656,-23.83399 70.38662,-14.84765 31.45702,11.86726 51.35096,48.34942 44.48674,81.58112 -2.96982,14.37142 -8.99068,24.60817 -21.66334,36.82335 -26.20601,25.26038 -37.89258,39.90677 -39.39479,49.36987 -0.33639,2.18653 -0.24028,2.42681 2.24418,4.704636 2.49407,2.301855 2.76799,2.402769 6.22893,2.402769 2.35952,0 5.07656,-0.490166 7.80611,-1.422438 z m 20.38218,-21.403471 c -1.92702,-1.51375 -2.44121,-3.98862 -1.29268,-6.21022 1.6579,-3.2005 5.36633,-3.90692 8.1151,-1.54739 3.49362,3.00347 1.19177,8.90326 -3.4744,8.90326 -1.038,0 -2.54694,-0.5142 -3.34946,-1.14853 z m -41.48423,6.96326 c 2.25379,-4.81757 6.8426,-11.58621 12.23921,-18.05641 2.3451,-2.81125 4.20003,-5.1703 4.12795,-5.24334 -0.0961,-0.0961 -1.61466,0.38444 -3.42634,0.95149 -8.65669,2.85451 -14.45841,3.68587 -25.49239,3.64742 -7.21407,-0.024 -11.88456,-0.33639 -14.75827,-0.91785 l -4.20484,-0.88423 1.92222,1.46569 c 4.40186,3.34948 8.95895,9.19544 11.35931,14.55652 0.74485,1.66273 2.30666,3.32064 5.22505,5.55667 2.29224,1.75403 5.44755,4.70464 7.01656,6.56103 l 2.85448,3.3735 0.6872,-3.62819 c 0.38444,-1.99431 1.4801,-5.31976 2.44602,-7.38615 z m 14.03263,-90.46289 c 1.72999,-3.71468 1.8261,-8.71243 0.24028,-12.20509 -1.45608,-3.2101 -6.37982,-8.35779 -9.38376,-9.81193 -5.42017,-2.62383 -11.09309,-0.75448 -16.94143,5.58979 -5.25677,5.70032 -6.66815,9.56349 -4.80793,13.16043 1.00435,1.94624 4.6037,5.19093 5.75414,5.19093 2.05196,0 3.50804,-2.79681 4.50759,-8.66629 0.4325,-2.62382 3.10918,-5.02611 5.57346,-5.02611 2.23938,0 5.08521,1.76844 7.26452,4.52201 1.80208,2.27782 5.16594,8.91666 5.16691,10.20118 4.8e-4,1.39361 1.25424,-0.0192 2.61901,-2.9554 z"
       id="path23"
       inkscape:connector-curvature="0" />
    <text
       id="text1508"
       y="207.15883"
       x="98.920341"
       style="font-style:normal;font-weight:normal;font-size:13.0426445px;line-height:123.75;font-family:sans-serif;letter-spacing:0px;word-spacing:0px;opacity:1;fill:#003e1b;fill-opacity:1;stroke:none;stroke-width:0.26458332;filter:url(#filter1999)"
       xml:space="preserve"><tspan
         style="font-style:normal;font-variant:normal;font-weight:bold;font-stretch:normal;font-size:86.95096588px;font-family:Bree;-inkscape-font-specification:'Bree, Bold';font-variant-ligatures:normal;font-variant-caps:normal;font-variant-numeric:normal;font-feature-settings:normal;text-align:start;writing-mode:lr-tb;text-anchor:start;fill:#003e1b;fill-opacity:1;stroke-width:0.26458332"
         y="207.15883"
         x="98.920341"
         id="tspan1506"
         sodipodi:role="line">Python Ireland</tspan></text>
    <text
       xml:space="preserve"
       style="font-style:normal;font-weight:normal;font-size:13.0426445px;line-height:123.75;font-family:sans-serif;letter-spacing:0px;word-spacing:0px;fill:#ffffff;fill-opacity:1;stroke:none;stroke-width:0.26458332"
       x="92.041168"
       y="191.8132"
       id="text1504"><tspan
         sodipodi:role="line"
         id="tspan1502"
         x="92.041168"
         y="191.8132"
         style="font-style:normal;font-variant:normal;font-weight:bold;font-stretch:normal;font-size:86.95096588px;font-family:Bree;-inkscape-font-specification:'Bree, Bold';font-variant-ligatures:normal;font-variant-caps:normal;font-variant-numeric:normal;font-feature-settings:normal;text-align:start;writing-mode:lr-tb;text-anchor:start;fill:#ffffff;fill-opacity:1;stroke-width:0.26458332">Python Ireland</tspan></text>
  </g>
</svg>
