<?xml version="1.0" encoding="UTF-8" standalone="no"?>
<!-- Created with Inkscape (http://www.inkscape.org/) -->

<svg
   xmlns:dc="http://purl.org/dc/elements/1.1/"
   xmlns:cc="http://creativecommons.org/ns#"
   xmlns:rdf="http://www.w3.org/1999/02/22-rdf-syntax-ns#"
   xmlns:svg="http://www.w3.org/2000/svg"
   xmlns="http://www.w3.org/2000/svg"
   xmlns:xlink="http://www.w3.org/1999/xlink"
   xmlns:sodipodi="http://sodipodi.sourceforge.net/DTD/sodipodi-0.dtd"
   xmlns:inkscape="http://www.inkscape.org/namespaces/inkscape"
   width="2800"
   height="2800"
   viewBox="0 0 740.83332 740.83335"
   version="1.1"
   id="svg8"
   inkscape:version="0.92.4 (5da689c313, 2019-01-14)"
   sodipodi:docname="Python_Ireland_Logo_PyCon_Ireland.svg">
  <defs
     id="defs2">
    <linearGradient
       inkscape:collect="always"
       id="linearGradient1074">
      <stop
         style="stop-color:#009a49;stop-opacity:1;"
         offset="0"
         id="stop1070" />
      <stop
         style="stop-color:#005c29;stop-opacity:1"
         offset="1"
         id="stop1072" />
    </linearGradient>
    <linearGradient
       inkscape:collect="always"
       xlink:href="#linearGradient1074"
       id="linearGradient1076"
       x1="-191.29327"
       y1="-224.37971"
       x2="-287.84247"
       y2="809.24554"
       gradientUnits="userSpaceOnUse"
       gradientTransform="matrix(1.0019304,0,1.155861e-8,1.0019304,1.1790985,-0.38940306)" />
    <filter
       inkscape:collect="always"
       style="color-interpolation-filters:sRGB"
       id="filter1328"
       x="-0.024455046"
       width="1.0489101"
       y="-0.06819329"
       height="1.1363866">
      <feGaussianBlur
         inkscape:collect="always"
         stdDeviation="5.8369712"
         id="feGaussianBlur1330" />
    </filter>
    <filter
       inkscape:collect="always"
       style="color-interpolation-filters:sRGB"
       id="filter1474"
       x="-0.15767059"
       width="1.3153412"
       y="-0.16657388"
       height="1.3331478">
      <feGaussianBlur
         inkscape:collect="always"
         stdDeviation="26.800834"
         id="feGaussianBlur1476" />
    </filter>
  </defs>
  <sodipodi:namedview
     id="base"
     pagecolor="#ffffff"
     bordercolor="#666666"
     borderopacity="1.0"
     inkscape:pageopacity="0.0"
     inkscape:pageshadow="2"
     inkscape:zoom="0.25"
     inkscape:cx="1170.2886"
     inkscape:cy="1427.2835"
     inkscape:document-units="mm"
     inkscape:current-layer="layer1"
     showgrid="false"
     units="px"
     inkscape:window-width="1920"
     inkscape:window-height="1137"
     inkscape:window-x="-8"
     inkscape:window-y="-8"
     inkscape:window-maximized="1"
     inkscape:snap-global="false" />
  <metadata
     id="metadata5">
    <rdf:RDF>
      <cc:Work
         rdf:about="">
        <dc:format>image/svg+xml</dc:format>
        <dc:type
           rdf:resource="http://purl.org/dc/dcmitype/StillImage" />
        <dc:title></dc:title>
      </cc:Work>
    </rdf:RDF>
  </metadata>
  <g
     inkscape:label="Layer 1"
     inkscape:groupmode="layer"
     id="layer1"
     transform="translate(0,443.83335)">
    <circle
       style="opacity:1;fill:url(#linearGradient1076);fill-opacity:1;stroke:none;stroke-width:10.60428905;stroke-miterlimit:4;stroke-dasharray:none;stroke-opacity:1"
       id="path827"
       cx="-236.79411"
       cy="290.83844"
       transform="matrix(-0.77546517,-0.63139034,0.6422503,-0.76649498,0,0)"
       r="343.95834" />
    <path
       inkscape:connector-curvature="0"
       id="path1332"
       d="m 377.15315,-266.48955 c -13.0904,-0.0472 -26.34729,2.54392 -39.03985,8.20899 -44.09806,19.68722 -67.27971,72.71082 -46.89533,117.53525 17.48533,38.44888 63.99937,58.621737 103.12784,40.43629 33.06561,-15.36645 50.37927,-55.66496 34.30717,-89.36054 -13.33713,-27.96066 -47.73654,-42.5669 -76.27291,-28.51766 -23.15223,11.3985 -35.21513,40.21927 -23.09442,63.88822 9.55514,18.65732 33.15776,28.35233 52.26569,18.06144 14.50311,-7.8124 22.01971,-26.57601 13.45092,-41.45386 -6.17292,-10.71651 -20.51087,-16.25463 -31.51258,-9.29593 -7.34186,4.64501 -13.04331,18.73753 -1.83814,22.12829 3.93842,1.19078 2.82489,-9.11091 6.32379,-11.46592 5.52663,-3.71994 12.90673,-0.94968 16.17047,4.4236 4.72961,7.78337 0.81831,17.77801 -6.74889,22.05056 -10.33879,5.83679 -23.29084,0.62493 -28.668,-9.4465 -7.03876,-13.17877 -0.35919,-29.41419 12.49751,-35.98909 16.29192,-8.33202 36.12179,-0.0473 43.98509,15.88607 9.71299,19.66901 -0.341,43.39257 -19.59651,52.63144 -23.30146,11.18052 -51.20818,-0.77252 -61.90921,-23.61972 -12.73215,-27.18176 1.26016,-59.5468 27.94586,-71.79314 31.30396,-14.36609 68.40441,1.79111 82.27785,32.55943 11.90117,26.39396 5.1134,57.98059 -15.27645,78.20463 l 0.37149,0.44285 a 21.769896,44.938473 48.588086 0 0 -25.15755,14.019677 21.769896,44.938473 48.588086 0 0 -22.63805,46.879292 21.769896,44.938473 48.588086 0 0 32.86612,-0.846347 19.849132,31.441262 47.786122 0 0 31.9127,-9.552295 19.849132,31.441262 47.786122 0 0 9.15277,-11.159856 19.849132,31.441262 47.786122 0 0 4.36695,-12.841709 c 5.38101,-5.846646 10.10855,-12.203528 14.10735,-18.952562 17.92637,-30.25563 21.5389,-68.17357 7.03338,-101.18324 -16.47896,-37.50016 -54.24436,-61.67886 -93.51557,-61.8624 z m -99.59867,170.772901 c -35.1652,-0.442863 -69.80875,15.434349 -91.14298,44.501166 -32.31554,44.0278057 -25.20281,108.988708 19.81219,141.623428 39.09919,28.346465 96.60788,21.910835 125.23446,-18.155448 24.55532,-34.366752 18.77053,-84.735702 -16.54246,-109.529473 -29.8413,-20.951801 -73.39937,-15.796019 -94.544,14.970845 -17.54651,25.5308712 -12.99674,62.622144 13.43841,80.311111 21.44746,14.351351 52.43954,10.386853 66.87634,-11.944197 11.3809,-17.604335 7.97636,-42.8926197 -10.49064,-54.2945755 -14.0167,-8.6543035 -34.0257,-5.7782275 -42.62531,9.0814097 -6.19518,10.7042218 -3.82191,25.8891018 7.70544,31.9369738 7.69259,4.034872 22.75015,1.928861 20.08416,-9.4716 -0.93705,-4.005355 -9.30247,2.110927 -13.09145,0.246021 -5.98479,-2.932648 -7.27727,-10.702246 -4.25748,-16.2147665 4.37607,-7.987548 14.9857,-9.6005327 22.46925,-5.1833213 10.22444,6.0360603 12.18515,19.8628698 6.15494,29.5529458 -7.89361,12.685239 -25.29483,15.018564 -37.41747,7.17076 -15.36137,-9.943005 -18.09198,-31.263852 -8.23372,-46.0353955 12.17728,-18.2459855 37.74658,-21.3990835 55.37599,-9.3436815 21.3334,14.5899901 24.93454,44.732918 10.50004,65.422946 -17.17418,24.617632 -52.19943,28.684484 -76.14786,11.697194 -28.09315,-19.926839 -32.65088,-60.1367744 -12.94137,-87.53552 16.90753,-23.503599 47.65663,-33.419047 75.36637,-25.872851 l 0.18994,-0.536363 a 44.938473,21.769896 18.588086 0 0 24.71994,14.7765 44.938473,21.769896 18.588086 0 0 51.9187,-3.833138 44.938473,21.769896 18.588086 0 0 -17.17077,-28.035943 31.441262,19.849132 17.786122 0 0 -24.22916,-22.863439 31.441262,19.849132 17.786122 0 0 -14.24176,-2.347108 31.441262,19.849132 17.786122 0 0 -13.30401,2.64235 c -7.75414,-1.732053 -15.62209,-2.652213 -23.46643,-2.740775 z m 143.59313,13.720016 a 6.1720421,6.1720421 0 0 1 3.37596,0.816845 6.1720421,6.1720421 0 0 1 2.26001,8.430405 6.1720421,6.1720421 0 0 1 -8.43065,2.258537 6.1720421,6.1720421 0 0 1 -2.26002,-8.433372 6.1720421,6.1720421 0 0 1 5.05466,-3.075362 z m -98.58273,2.849011 a 6.1720421,6.1720421 0 0 1 6.17374,6.170417 6.1720421,6.1720421 0 0 1 -6.17374,6.174321 6.1720421,6.1720421 0 0 1 -6.17061,-6.174321 6.1720421,6.1720421 0 0 1 6.17061,-6.170417 z m 165.14335,10.481317 c -39.12892,0.09851 -75.14662,29.168662 -78.72366,69.46126948 -3.22425,36.31973752 23.02014,71.46246152 60.23683,74.39118752 30.88372,2.425851 60.73019,-20.055751 62.83138,-51.793453 1.70479,-25.7498525 -17.22438,-50.606125 -43.78188,-51.944018 -20.93606,-1.057929 -41.13414,14.538808 -41.77507,36.2331286 -0.48664,16.4657134 12.00911,32.3547214 29.17754,32.3719534 12.36807,0.01335 24.33271,-9.633988 23.80715,-22.640548 -0.35086,-8.6803858 -9.70687,-20.6659072 -18.24612,-12.6571838 -3.00129,2.8145716 6.47754,7.0014798 6.76765,11.2090558 0.4581,6.646223 -5.62947,11.653396 -11.91293,11.794118 -9.10573,0.196824 -15.80719,-8.177982 -15.7235,-16.867228 0.11323,-11.87236096 11.1088,-20.4833499 22.51615,-20.1059541 14.93238,0.5117507 25.65432,14.3961326 24.91997,28.8178321 -0.93063,18.275008 -18.02979,31.301251 -35.75134,30.150326 -21.89031,-1.422042 -37.40584,-21.99299 -35.77952,-43.2887382 1.96805,-25.7700288 26.27054,-43.9584408 51.40607,-41.8032168 29.90629,2.568534 50.94231,30.8628028 48.2051,60.095917 -3.21081,34.292949 -35.75356,58.345206 -69.33644,54.976586 -28.80873,-2.893293 -52.77314,-24.561039 -60.09304,-52.33128 l -0.55946,0.09852 a 44.938473,21.769896 78.588086 0 0 0.43794,-28.7961654 44.938473,21.769896 78.588086 0 0 -29.28067,-43.0441886 44.938473,21.769896 78.588086 0 0 -15.69535,28.88671 31.441262,19.849132 77.786122 0 0 -7.68669,32.416242 31.441262,19.849132 77.786122 0 0 5.0922,13.507469 31.441262,19.849132 77.786122 0 0 8.93393,10.199865 c 2.37319,7.583079 5.51354,14.856179 9.35904,21.69429 17.23888,30.651738 48.27299,52.739689 84.11277,56.682539 54.28749,5.97114 106.98797,-32.668659 112.74323,-87.97097 4.99887,-48.033641 -29.33134,-94.621141 -78.34229,-99.379833 -2.62749,-0.246023 -5.24999,-0.393634 -7.8586,-0.393634 z M 374.09596,5.8474145 a 6.1720421,6.1720421 0 0 1 5.49228,3.0901056 6.1720421,6.1720421 0 0 1 -2.26327,8.4304159 6.1720421,6.1720421 0 0 1 -8.42753,-2.25854 6.1720421,6.1720421 0 0 1 2.25687,-8.430899 6.1720421,6.1720421 0 0 1 2.94152,-0.8266667 z"
       style="opacity:1;fill:#003e1b;fill-rule:evenodd;stroke-width:49.20572662;fill-opacity:1;filter:url(#filter1474)" />
    <path
       style="opacity:1;fill:#ffffff;fill-rule:evenodd;stroke-width:48.1268425"
       d="m 377.00545,-262.25623 c -12.80338,-0.0462 -25.7696,2.48814 -38.18387,8.029 -43.13116,19.25556 -65.80453,71.11656 -45.8671,114.95817 17.10195,37.60585 62.59612,57.336394 100.86666,39.549681 32.34061,-15.029521 49.27465,-54.444451 33.55495,-87.401221 -13.0447,-27.34759 -46.68987,-41.63357 -74.60055,-27.89238 -22.64459,11.14858 -34.443,39.33742 -22.58805,62.48741 9.34563,18.24824 32.43074,27.73067 51.11971,17.66542 14.18512,-7.6411 21.53691,-25.9933 13.156,-40.54494 -6.03758,-10.48154 -20.06115,-15.89823 -30.82164,-9.09211 -7.18088,4.54317 -12.75732,18.32669 -1.79784,21.64311 3.85207,1.16467 2.76296,-8.91115 6.18514,-11.21452 5.40545,-3.63838 12.62374,-0.92886 15.81591,4.32661 4.62591,7.61271 0.80037,17.38821 -6.60091,21.56708 -10.1121,5.70881 -22.78016,0.61122 -28.03942,-9.23938 -6.88443,-12.88981 -0.35132,-28.76925 12.22349,-35.19999 15.9347,-8.14933 35.32978,-0.0463 43.02067,15.53775 9.50002,19.23775 -0.33353,42.44114 -19.16684,51.47744 -22.79055,10.93538 -50.08539,-0.75558 -60.55179,-23.10183 -12.45298,-26.58577 1.23253,-58.24118 27.33312,-70.219 30.61759,-14.0511 66.90458,1.75183 80.47383,31.84553 11.64022,25.81524 5.00128,56.7093 -14.9415,76.48991 l 0.36334,0.43314 a 21.292569,43.953151 48.588086 0 0 -24.60594,13.712282 21.292569,43.953151 48.588086 0 0 -22.14169,45.851416 21.292569,43.953151 48.588086 0 0 32.1455,-0.82779 19.41392,30.75188 47.786122 0 0 31.21298,-9.342851 19.41392,30.75188 47.786122 0 0 8.95208,-10.915165 19.41392,30.75188 47.786122 0 0 4.2712,-12.560141 c 5.26303,-5.718453 9.88691,-11.935954 13.79804,-18.537011 17.53331,-29.59224 21.06663,-66.67879 6.87916,-98.96469 -16.11764,-36.67793 -53.05499,-60.32649 -91.46514,-60.50601 z M 279.59058,-95.2277 c -34.39417,-0.433152 -68.27812,15.095936 -89.14458,43.525433 -31.60699,43.0624511 -24.65021,106.599019 19.37779,138.51819 38.2419,27.724937 94.48965,21.430417 122.48857,-17.757371 24.01691,-33.613226 18.35896,-82.877786 -16.17975,-107.127928 -29.187,-20.492411 -71.79002,-15.449675 -92.47103,14.642594 -17.16179,24.9710807 -12.71177,61.24909 13.14376,78.550208 20.9772,14.036683 51.28975,10.159111 65.41001,-11.682308 11.13136,-17.218342 7.80147,-41.9521557 -10.26063,-53.104112 -13.70937,-8.464549 -33.27965,-5.651534 -41.6907,8.88229057 -6.05935,10.46952083 -3.73811,25.32145643 7.53649,31.23672343 7.52392,3.946403 22.25133,1.886568 19.64379,-9.263926 -0.9165,-3.917533 -9.0985,2.064643 -12.8044,0.240627 -5.85357,-2.868347 -7.11771,-10.467588 -4.16413,-15.8592413 4.28012,-7.8124129 14.65712,-9.3900313 21.97658,-5.06967171 10.00026,5.90371351 11.91798,19.42735601 6.01999,28.90496701 -7.72053,12.407102 -24.74021,14.689267 -36.59705,7.013534 -15.02456,-9.724994 -17.6953,-30.5783601 -8.05319,-45.0260224 11.91028,-17.8459236 36.91895,-20.9298866 54.16181,-9.1388116 20.86565,14.2700895 24.38783,43.752103 10.26982,63.988481 -16.79762,24.077865 -51.0549,28.055547 -74.47824,11.440721 -27.47718,-19.489923 -31.93498,-58.8182142 -12.65762,-85.616214 16.53682,-22.988259 46.61171,-32.686301 73.71389,-25.305563 l 0.18577,-0.524602 a 43.953151,21.292569 18.588086 0 0 24.17793,14.45251 43.953151,21.292569 18.588086 0 0 50.78033,-3.749093 43.953151,21.292569 18.588086 0 0 -16.79428,-27.421226 30.75188,19.41392 17.786122 0 0 -23.69791,-22.362135 30.75188,19.41392 17.786122 0 0 -13.9295,-2.295645 30.75188,19.41392 17.786122 0 0 -13.0123,2.584414 c -7.58412,-1.694076 -15.27956,-2.594061 -22.95191,-2.680681 z m 140.4447,13.419191 a 6.0367138,6.0367138 0 0 1 3.30194,0.798935 6.0367138,6.0367138 0 0 1 2.21046,8.24556 6.0367138,6.0367138 0 0 1 -8.2458,2.209016 6.0367138,6.0367138 0 0 1 -2.21047,-8.248462 6.0367138,6.0367138 0 0 1 4.94383,-3.007931 z m -96.4212,2.786544 a 6.0367138,6.0367138 0 0 1 6.03837,6.035124 6.0367138,6.0367138 0 0 1 -6.03837,6.038943 6.0367138,6.0367138 0 0 1 -6.03531,-6.038943 6.0367138,6.0367138 0 0 1 6.03531,-6.035124 z m 161.52241,10.251503 c -38.27098,0.09635 -73.49895,28.529109 -76.99756,67.93826031 -3.15356,35.52339069 22.5154,69.89557369 58.91608,72.76008469 30.20656,2.372662 59.39861,-19.616008 61.45373,-50.657829 1.66741,-25.1852603 -16.84671,-49.496534 -42.82191,-50.805092 -20.47702,-1.034733 -40.23224,14.22003 -40.85911,35.4386803 -0.47597,16.1046857 11.74579,31.6453107 28.53779,31.6621657 12.09689,0.01306 23.79919,-9.422753 23.28515,-22.144131 -0.34316,-8.4900597 -9.49403,-20.2127864 -17.84605,-12.3796624 -2.93549,2.7528593 6.33551,6.847965 6.61926,10.9632854 0.44806,6.500498 -5.50604,11.397884 -11.65173,11.53552 -8.90607,0.192509 -15.4606,-7.998671 -15.37874,-16.4973967 0.11074,-11.6120471 10.86523,-20.0342313 22.02246,-19.6651103 14.60497,0.50053 25.09182,14.0804827 24.37357,28.185972 -0.91022,17.87431 -17.63447,30.614939 -34.96745,29.489249 -21.41035,-1.390862 -36.58568,-21.510771 -34.99502,-42.3395884 1.9249,-25.2049946 25.69453,-42.9946076 50.27894,-40.8866386 29.25056,2.512216 49.82535,30.1861043 47.14815,58.778253 -3.14041,33.541041 -34.96962,57.065928 -67.81617,53.771168 -28.17706,-2.829855 -51.61603,-24.022513 -58.77543,-51.183863 l -0.5472,0.09636 a 43.953151,21.292569 78.588086 0 0 0.42834,-28.1647806 43.953151,21.292569 78.588086 0 0 -28.63866,-42.1004004 43.953151,21.292569 78.588086 0 0 -15.35121,28.253339 30.75188,19.41392 77.786122 0 0 -7.51816,31.705483 30.75188,19.41392 77.786122 0 0 4.98055,13.211304 30.75188,19.41392 77.786122 0 0 8.73805,9.976222 c 2.32115,7.416813 5.39265,14.530442 9.15383,21.218621 16.8609,29.979667 47.21456,51.583317 82.26851,55.439717 53.09718,5.84022 104.64215,-31.952366 110.27122,-86.042117 4.88927,-46.980455 -28.68822,-92.546476 -76.62455,-97.200829 -2.56988,-0.240629 -5.13488,-0.385003 -7.6863,-0.385003 z M 374.01529,4.1094682 a 6.0367138,6.0367138 0 0 1 5.37185,3.0223519 6.0367138,6.0367138 0 0 1 -2.21364,8.2455709 6.0367138,6.0367138 0 0 1 -8.24275,-2.20902 6.0367138,6.0367138 0 0 1 2.20739,-8.2460426 6.0367138,6.0367138 0 0 1 2.87702,-0.8085412 z"
       id="path4551"
       inkscape:connector-curvature="0" />
    <g
       id="g1102"
       style="font-style:normal;font-weight:normal;font-size:1687.77990723px;line-height:1.25;font-family:sans-serif;letter-spacing:0px;word-spacing:0px;fill:#333333;fill-opacity:1;stroke:none;stroke-width:42.19449997;filter:url(#filter1328)"
       aria-label="PyCon Ireland"
       transform="matrix(0.94341885,0,0,0.94341885,21.081554,10.320508)">
      <path
         id="path1078"
         style="font-style:normal;font-variant:normal;font-weight:normal;font-stretch:normal;font-size:98.77777863px;font-family:Consolas;-inkscape-font-specification:'Consolas, Normal';font-variant-ligatures:normal;font-variant-caps:normal;font-variant-numeric:normal;font-feature-settings:normal;text-align:start;writing-mode:lr-tb;text-anchor:start;fill:#333333;fill-opacity:1;stroke-width:42.19449997"
         d="m 145.59665,105.49957 q -3.19508,2.16322 -7.16143,3.10124 -3.92642,0.91098 -8.10614,0.0714 -4.17973,-0.83963 -8.38727,-3.69904 -4.16761,-2.88645 -7.84509,-8.318088 L 109.7162,90.184989 90.985029,102.86687 86.171865,95.757806 138.37153,60.4162 l 9.95082,14.697382 q 2.6229,3.874038 4.15083,8.023453 1.56788,4.122375 1.46252,8.09619 -0.0783,4.013752 -2.03203,7.666353 -1.95372,3.652602 -6.30702,6.599992 z m -5.32195,-7.172312 q 5.03225,-3.407072 5.4638,-8.533667 0.45858,-5.086657 -3.54338,-10.99756 l -4.92133,-7.268814 -21.48693,14.547654 4.48868,6.629797 q 4.27236,6.310289 9.32654,7.839292 5.08122,1.56893 10.67262,-2.216702 z"
         inkscape:connector-curvature="0" />
      <path
         id="path1080"
         style="font-style:normal;font-variant:normal;font-weight:normal;font-stretch:normal;font-size:98.77777863px;font-family:Consolas;-inkscape-font-specification:'Consolas, Normal';font-variant-ligatures:normal;font-variant-caps:normal;font-variant-numeric:normal;font-feature-settings:normal;text-align:start;writing-mode:lr-tb;text-anchor:start;fill:#333333;fill-opacity:1;stroke-width:42.19449997"
         d="m 182.55476,138.04752 -42.75557,17.88734 q -6.55023,2.7001 -11.90507,3.99758 -5.3216,1.33243 -9.75035,1.084 -4.4637,-0.2152 -8.17093,-2.0147 -3.70722,-1.79951 -6.99717,-5.26013 -0.86403,-0.90885 -1.52694,-1.67615 -0.66292,-0.76731 -1.4238,-1.70766 l 5.52301,-5.25064 q 0.62623,0.86873 1.42035,1.84404 0.75916,1.00855 1.72289,2.02226 1.59512,1.67788 3.44701,2.64582 1.88512,1.0029 4.23328,1.23284 2.31321,0.26318 5.19088,-0.20992 2.87767,-0.4731 6.42295,-1.71397 l 21.76962,-47.38205 6.57991,6.92124 -14.76974,30.94472 -3.75828,6.96691 7.52037,-3.28966 30.8803,-13.71842 z"
         inkscape:connector-curvature="0" />
      <path
         id="path1082"
         style="font-style:normal;font-variant:normal;font-weight:normal;font-stretch:normal;font-size:98.77777863px;font-family:Consolas;-inkscape-font-specification:'Consolas, Normal';font-variant-ligatures:normal;font-variant-caps:normal;font-variant-numeric:normal;font-feature-settings:normal;text-align:start;writing-mode:lr-tb;text-anchor:start;fill:#333333;fill-opacity:1;stroke-width:42.19449997"
         d="m 189.82175,201.06945 q -7.93631,-2.04537 -14.56666,-7.03121 -10.67794,-8.02952 -11.63875,-18.70916 -0.89327,-10.6892 8.49866,-23.17893 4.55103,-6.05212 9.81293,-9.7593 5.26189,-3.70718 10.74247,-4.8964 5.50958,-1.22778 11.06422,0.0525 5.55464,1.28032 10.72014,5.16463 3.50792,2.63786 6.05091,5.51566 2.57197,2.83925 4.41987,6.1599 l -5.0728,6.74599 q -1.60644,-3.5615 -3.95638,-6.53552 -2.32095,-3.01256 -5.79032,-5.62143 -3.54647,-2.66685 -7.45217,-3.4917 -3.83817,-0.83442 -7.75586,0.20243 -3.88871,0.99831 -7.72187,3.84877 -3.80418,2.81192 -7.31166,7.47629 -7.36281,9.79133 -7.13169,17.7498 0.23112,7.95847 7.90228,13.72697 3.23808,2.43495 6.75707,3.93456 3.54799,1.46106 7.2995,2.16997 z"
         inkscape:connector-curvature="0" />
      <path
         id="path1084"
         style="font-style:normal;font-variant:normal;font-weight:normal;font-stretch:normal;font-size:98.77777863px;font-family:Consolas;-inkscape-font-specification:'Consolas, Normal';font-variant-ligatures:normal;font-variant-caps:normal;font-variant-numeric:normal;font-feature-settings:normal;text-align:start;writing-mode:lr-tb;text-anchor:start;fill:#333333;fill-opacity:1;stroke-width:42.19449997"
         d="m 249.23188,208.06319 q -2.60396,5.00636 -6.1971,8.46527 -3.57088,3.41612 -7.78174,5.0315 -4.18861,1.5726 -8.86485,1.2606 -4.65398,-0.35479 -9.48918,-2.86972 -4.62126,-2.40365 -7.5667,-5.72972 -2.88039,-3.3466 -4.00111,-7.46327 -1.07793,-4.09442 -0.31061,-8.91439 0.8101,-4.79772 3.59211,-10.14639 2.60395,-5.00636 6.15258,-8.37969 3.57088,-3.41612 7.75949,-4.98872 4.21086,-1.61538 8.86485,-1.26059 4.67624,0.312 9.51144,2.82693 4.62125,2.40365 7.50164,5.75025 2.94544,3.32607 4.02337,7.42048 1.14298,4.07388 0.33287,8.8716 -0.76731,4.81998 -3.52706,10.12586 z m -7.79456,-3.61926 q 2.06981,-3.97941 2.7069,-7.39925 0.70213,-3.44038 0.0999,-6.25442 -0.57996,-2.85683 -2.42149,-5.06507 -1.77648,-2.22877 -4.64337,-3.71992 -3.33757,-1.73597 -6.42371,-1.65584 -3.0211,0.0596 -5.69657,1.44064 -2.63269,1.4033 -4.87352,3.93463 -2.17578,2.51079 -3.82273,5.6772 -2.06981,3.97942 -2.77194,7.41979 -0.65935,3.46264 -0.0794,6.31947 0.60222,2.81404 2.3787,5.04281 1.79874,2.18598 4.70841,3.69939 3.33758,1.73597 6.35867,1.67637 3.08615,-0.0801 5.71883,-1.48343 2.67548,-1.38105 4.85126,-3.89184 2.24083,-2.53132 3.91003,-5.74053 z"
         inkscape:connector-curvature="0" />
      <path
         id="path1086"
         style="font-style:normal;font-variant:normal;font-weight:normal;font-stretch:normal;font-size:98.77777863px;font-family:Consolas;-inkscape-font-specification:'Consolas, Normal';font-variant-ligatures:normal;font-variant-caps:normal;font-variant-numeric:normal;font-feature-settings:normal;text-align:start;writing-mode:lr-tb;text-anchor:start;fill:#333333;fill-opacity:1;stroke-width:42.19449997"
         d="m 264.37966,188.38066 7.10687,2.31966 -2.10347,7.53259 q 2.79565,-1.72576 5.18436,-2.6711 2.40367,-0.99119 4.50613,-1.3704 2.14831,-0.36424 4.14791,-0.11746 2.01458,0.20093 4.03201,0.85942 7.10687,2.31966 9.35225,7.72021 2.3062,5.36966 -0.44746,13.80621 l -9.80244,30.03226 -7.97804,-2.60401 9.59292,-29.39035 q 1.76594,-5.41039 0.58658,-8.63652 -1.1644,-3.27198 -5.15342,-4.57398 -1.46723,-0.4789 -3.03825,-0.48432 -1.51022,-0.0363 -3.38247,0.57024 -1.85728,0.56071 -4.24408,1.81108 -2.34096,1.26534 -5.43973,3.29804 l -9.96706,30.53662 -7.97803,-2.60401 z"
         inkscape:connector-curvature="0" />
      <path
         id="path1088"
         style="font-style:normal;font-variant:normal;font-weight:normal;font-stretch:normal;font-size:98.77777863px;font-family:Consolas;-inkscape-font-specification:'Consolas, Normal';font-variant-ligatures:normal;font-variant-caps:normal;font-variant-numeric:normal;font-feature-settings:normal;text-align:start;writing-mode:lr-tb;text-anchor:start;fill:#333333;fill-opacity:1;stroke-width:42.19449997"
         d="m 369.84949,201.07188 -14.51643,0.18742 -0.0934,-7.2341 37.71377,-0.48692 0.0934,7.23409 -14.51643,0.18743 0.62579,48.46845 14.51642,-0.18742 0.0946,7.33055 -37.71376,0.48693 -0.0946,-7.33056 14.51642,-0.18742 z"
         inkscape:connector-curvature="0" />
      <path
         id="path1090"
         style="font-style:normal;font-variant:normal;font-weight:normal;font-stretch:normal;font-size:98.77777863px;font-family:Consolas;-inkscape-font-specification:'Consolas, Normal';font-variant-ligatures:normal;font-variant-caps:normal;font-variant-numeric:normal;font-feature-settings:normal;text-align:start;writing-mode:lr-tb;text-anchor:start;fill:#333333;fill-opacity:1;stroke-width:42.19449997"
         d="m 403.22447,207.08107 7.5469,-1.3618 1.82181,8.73817 q 3.30793,-5.841 6.97879,-8.85588 3.71833,-3.02345 7.89523,-3.77715 7.40451,-1.33611 12.06674,2.77266 4.70969,4.10019 6.12929,13.59708 l -8.3538,1.5074 q -0.98816,-6.29105 -3.487,-8.73175 -2.45995,-2.49673 -6.25713,-1.81155 -1.66127,0.29977 -3.25866,1.22514 -1.55849,0.86935 -3.12234,2.52382 -1.52495,1.59845 -3.15018,3.99915 -1.62524,2.40071 -3.3811,5.70717 l 5.52429,30.61479 -8.35381,1.5074 z"
         inkscape:connector-curvature="0" />
      <path
         id="path1092"
         style="font-style:normal;font-variant:normal;font-weight:normal;font-stretch:normal;font-size:98.77777863px;font-family:Consolas;-inkscape-font-specification:'Consolas, Normal';font-variant-ligatures:normal;font-variant-caps:normal;font-variant-numeric:normal;font-feature-settings:normal;text-align:start;writing-mode:lr-tb;text-anchor:start;fill:#333333;fill-opacity:1;stroke-width:42.19449997"
         d="m 492.67069,205.15127 q 0.60237,1.67982 0.96397,2.83112 0.3616,1.15129 0.62896,2.18267 l -32.00746,11.47748 q 2.50713,6.9917 7.76284,9.35987 5.23943,2.32276 12.59433,-0.31462 1.99763,-0.71632 3.94642,-1.56885 1.93251,-0.89793 3.69626,-1.83782 1.76374,-0.93989 3.32961,-1.86005 1.59498,-0.98185 2.90128,-1.91142 l 2.32806,6.49229 q -2.89785,2.0639 -6.78855,4.07392 -3.82901,2.03914 -8.18748,3.60203 -5.85668,2.10013 -10.64875,2.02516 -4.79206,-0.075 -8.59059,-2.09461 -3.76941,-2.08131 -6.64892,-5.96765 -2.85038,-3.94802 -4.83656,-9.48691 -1.72569,-4.81246 -1.894,-9.56853 -0.13919,-4.81775 1.33816,-8.98544 1.50647,-4.22937 4.68176,-7.52001 3.17529,-3.29064 8.07856,-5.04889 4.76707,-1.70941 8.98177,-1.52988 4.2147,0.17953 7.70482,2.05357 3.51924,1.81235 6.20683,5.30636 2.71671,3.43234 4.45868,8.29021 z m -8.62452,1.81168 q -0.95457,-3.09068 -2.57638,-5.32724 -1.6381,-2.28195 -3.83293,-3.54446 -2.14942,-1.27878 -4.77762,-1.46359 -2.64447,-0.23021 -5.64092,0.84428 -2.58783,0.92797 -4.3635,2.69195 -1.77567,1.76398 -2.66809,4.13353 -0.89242,2.36955 -0.93414,5.25387 -0.0417,2.88432 0.82203,6.00756 z"
         inkscape:connector-curvature="0" />
      <path
         id="path1094"
         style="font-style:normal;font-variant:normal;font-weight:normal;font-stretch:normal;font-size:98.77777863px;font-family:Consolas;-inkscape-font-specification:'Consolas, Normal';font-variant-ligatures:normal;font-variant-caps:normal;font-variant-numeric:normal;font-feature-settings:normal;text-align:start;writing-mode:lr-tb;text-anchor:start;fill:#333333;fill-opacity:1;stroke-width:42.19449997"
         d="m 498.61292,163.02976 -12.51554,6.96838 -3.35515,-6.026 19.93216,-11.09779 29.75054,53.43337 12.59983,-7.01531 3.40207,6.11028 -33.92261,18.88737 -3.40207,-6.11028 13.90616,-7.74265 z"
         inkscape:connector-curvature="0" />
      <path
         id="path1096"
         style="font-style:normal;font-variant:normal;font-weight:normal;font-stretch:normal;font-size:98.77777863px;font-family:Consolas;-inkscape-font-specification:'Consolas, Normal';font-variant-ligatures:normal;font-variant-caps:normal;font-variant-numeric:normal;font-feature-settings:normal;text-align:start;writing-mode:lr-tb;text-anchor:start;fill:#333333;fill-opacity:1;stroke-width:42.19449997"
         d="m 585.29676,177.65021 -4.20248,-4.97719 q -0.66523,5.51922 -2.79422,9.4294 -2.09123,3.88017 -5.60266,6.67117 -3.24713,2.58092 -6.21057,3.58092 -2.96343,0.99999 -5.61413,0.76564 -2.64296,-0.30212 -4.92091,-1.69529 -2.24019,-1.42319 -4.07085,-3.72639 -4.53162,-5.70136 -2.85371,-12.27193 1.68565,-6.63835 9.99227,-13.24072 l 7.85353,-6.24223 -2.64095,-3.32265 q -2.67096,-3.3604 -6.4137,-3.65093 -3.77274,-0.32828 -8.19035,3.18298 -3.20938,2.55091 -5.77303,5.75919 -2.5259,3.17827 -4.79817,7.14073 l -4.71169,-5.92791 q 0.88587,-1.44344 2.06604,-3.0592 1.18792,-1.68353 2.61691,-3.37383 1.42898,-1.6903 3.12904,-3.34961 1.67004,-1.69707 3.55791,-3.19761 3.43592,-2.73098 6.79242,-4.16662 3.3565,-1.43563 6.47481,-1.38812 3.15606,0.0175 6.03618,1.54817 2.88011,1.53066 5.40101,4.70228 l 20.76744,26.12808 z m -14.4323,-16.6849 -8.34438,6.63238 q -2.45422,1.9507 -3.83868,3.85205 -1.38445,1.90135 -1.79692,3.70785 -0.41246,1.8065 0.0415,3.54041 0.46175,1.66614 1.7222,3.25195 0.87031,1.09496 2.02042,1.84431 1.12009,0.7116 2.50547,0.90429 1.35536,0.15493 2.92372,-0.35233 1.56837,-0.50725 3.3052,-1.88775 2.26544,-1.80064 4.09237,-5.47074 1.83468,-3.73786 2.71096,-9.30161 z"
         inkscape:connector-curvature="0" />
      <path
         id="path1098"
         style="font-style:normal;font-variant:normal;font-weight:normal;font-stretch:normal;font-size:98.77777863px;font-family:Consolas;-inkscape-font-specification:'Consolas, Normal';font-variant-ligatures:normal;font-variant-caps:normal;font-variant-numeric:normal;font-feature-settings:normal;text-align:start;writing-mode:lr-tb;text-anchor:start;fill:#333333;fill-opacity:1;stroke-width:42.19449997"
         d="m 566.7824,129.72501 5.00486,-5.55336 6.03018,4.98009 q -0.44233,-3.25549 -0.33662,-5.82228 0.0699,-2.59908 0.57678,-4.67446 0.53919,-2.1112 1.57643,-3.83847 1.00141,-1.75956 2.42215,-3.336 5.00486,-5.55335 10.85191,-5.41315 5.84352,0.0721 12.43589,6.01334 l 23.46742,21.14958 -5.61836,6.2341 -22.96582,-20.69753 q -4.22772,-3.81015 -7.65483,-4.04192 -3.46294,-0.26406 -6.27212,2.85298 -1.03326,1.1465 -1.67596,2.58007 -0.64622,1.36545 -0.8519,3.32272 -0.24151,1.92499 -0.0677,4.61386 0.20613,2.65305 0.80592,6.31016 l 23.86153,21.50476 -5.61836,6.2341 z"
         inkscape:connector-curvature="0" />
      <path
         id="path1100"
         style="font-style:normal;font-variant:normal;font-weight:normal;font-stretch:normal;font-size:98.77777863px;font-family:Consolas;-inkscape-font-specification:'Consolas, Normal';font-variant-ligatures:normal;font-variant-caps:normal;font-variant-numeric:normal;font-feature-settings:normal;text-align:start;writing-mode:lr-tb;text-anchor:start;fill:#333333;fill-opacity:1;stroke-width:42.19449997"
         d="m 617.34938,110.45089 q -5.20481,-3.32016 -8.32255,-7.31128 -3.1584,-4.017064 -4.26337,-8.383302 -1.1197,-4.432839 -0.20841,-9.000325 0.89658,-4.634088 3.77578,-9.147632 1.24506,-1.951803 2.68221,-3.666649 1.4631,-1.755508 3.15896,-3.248119 l -17.15961,-10.946146 4.53928,-7.115949 57.4562,36.651432 -4.04644,6.34336 -7.88152,-4.684385 q 2.41671,5.717873 2.2857,10.497065 -0.131,4.77919 -2.69893,8.80479 -2.23073,3.49698 -5.40654,5.24691 -3.14987,1.70928 -6.93424,1.81241 -3.7991,0.0365 -8.11071,-1.45525 -4.3116,-1.49179 -8.86581,-4.39693 z m 4.16981,-7.52326 q 7.40058,4.72085 12.43497,4.90022 5.01966,0.11277 7.56165,-3.87216 1.71196,-2.68373 1.20639,-7.182484 -0.47962,-4.539415 -3.09544,-10.841976 L 620.67801,73.84378 q -1.92862,1.229716 -3.68406,3.084781 -1.7961,1.829128 -3.11898,3.902918 -3.6833,5.774084 -2.01744,11.413453 1.69179,5.598706 9.66166,10.682698 z"
         inkscape:connector-curvature="0" />
    </g>
    <g
       aria-label="PyCon Ireland"
       style="font-style:normal;font-weight:normal;font-size:1687.77990723px;line-height:1.25;font-family:sans-serif;letter-spacing:0px;word-spacing:0px;fill:#ffffff;fill-opacity:1;stroke:none;stroke-width:42.19449997"
       id="text835"
       transform="matrix(0.92038807,0,0,0.92038807,29.662598,12.414079)">
      <path
         d="m 145.59665,105.49957 q -3.19508,2.16322 -7.16143,3.10124 -3.92642,0.91098 -8.10614,0.0714 -4.17973,-0.83963 -8.38727,-3.69904 -4.16761,-2.88645 -7.84509,-8.318088 L 109.7162,90.184989 90.985029,102.86687 86.171865,95.757806 138.37153,60.4162 l 9.95082,14.697382 q 2.6229,3.874038 4.15083,8.023453 1.56788,4.122375 1.46252,8.09619 -0.0783,4.013752 -2.03203,7.666353 -1.95372,3.652602 -6.30702,6.599992 z m -5.32195,-7.172312 q 5.03225,-3.407072 5.4638,-8.533667 0.45858,-5.086657 -3.54338,-10.99756 l -4.92133,-7.268814 -21.48693,14.547654 4.48868,6.629797 q 4.27236,6.310289 9.32654,7.839292 5.08122,1.56893 10.67262,-2.216702 z"
         style="font-style:normal;font-variant:normal;font-weight:normal;font-stretch:normal;font-size:98.77777863px;font-family:Consolas;-inkscape-font-specification:'Consolas, Normal';font-variant-ligatures:normal;font-variant-caps:normal;font-variant-numeric:normal;font-feature-settings:normal;text-align:start;writing-mode:lr-tb;text-anchor:start;fill:#ffffff;fill-opacity:1;stroke-width:42.19449997"
         id="path895"
         inkscape:connector-curvature="0" />
      <path
         d="m 182.55476,138.04752 -42.75557,17.88734 q -6.55023,2.7001 -11.90507,3.99758 -5.3216,1.33243 -9.75035,1.084 -4.4637,-0.2152 -8.17093,-2.0147 -3.70722,-1.79951 -6.99717,-5.26013 -0.86403,-0.90885 -1.52694,-1.67615 -0.66292,-0.76731 -1.4238,-1.70766 l 5.52301,-5.25064 q 0.62623,0.86873 1.42035,1.84404 0.75916,1.00855 1.72289,2.02226 1.59512,1.67788 3.44701,2.64582 1.88512,1.0029 4.23328,1.23284 2.31321,0.26318 5.19088,-0.20992 2.87767,-0.4731 6.42295,-1.71397 l 21.76962,-47.38205 6.57991,6.92124 -14.76974,30.94472 -3.75828,6.96691 7.52037,-3.28966 30.8803,-13.71842 z"
         style="font-style:normal;font-variant:normal;font-weight:normal;font-stretch:normal;font-size:98.77777863px;font-family:Consolas;-inkscape-font-specification:'Consolas, Normal';font-variant-ligatures:normal;font-variant-caps:normal;font-variant-numeric:normal;font-feature-settings:normal;text-align:start;writing-mode:lr-tb;text-anchor:start;fill:#ffffff;fill-opacity:1;stroke-width:42.19449997"
         id="path897"
         inkscape:connector-curvature="0" />
      <path
         d="m 189.82175,201.06945 q -7.93631,-2.04537 -14.56666,-7.03121 -10.67794,-8.02952 -11.63875,-18.70916 -0.89327,-10.6892 8.49866,-23.17893 4.55103,-6.05212 9.81293,-9.7593 5.26189,-3.70718 10.74247,-4.8964 5.50958,-1.22778 11.06422,0.0525 5.55464,1.28032 10.72014,5.16463 3.50792,2.63786 6.05091,5.51566 2.57197,2.83925 4.41987,6.1599 l -5.0728,6.74599 q -1.60644,-3.5615 -3.95638,-6.53552 -2.32095,-3.01256 -5.79032,-5.62143 -3.54647,-2.66685 -7.45217,-3.4917 -3.83817,-0.83442 -7.75586,0.20243 -3.88871,0.99831 -7.72187,3.84877 -3.80418,2.81192 -7.31166,7.47629 -7.36281,9.79133 -7.13169,17.7498 0.23112,7.95847 7.90228,13.72697 3.23808,2.43495 6.75707,3.93456 3.54799,1.46106 7.2995,2.16997 z"
         style="font-style:normal;font-variant:normal;font-weight:normal;font-stretch:normal;font-size:98.77777863px;font-family:Consolas;-inkscape-font-specification:'Consolas, Normal';font-variant-ligatures:normal;font-variant-caps:normal;font-variant-numeric:normal;font-feature-settings:normal;text-align:start;writing-mode:lr-tb;text-anchor:start;fill:#ffffff;fill-opacity:1;stroke-width:42.19449997"
         id="path899"
         inkscape:connector-curvature="0" />
      <path
         d="m 249.23188,208.06319 q -2.60396,5.00636 -6.1971,8.46527 -3.57088,3.41612 -7.78174,5.0315 -4.18861,1.5726 -8.86485,1.2606 -4.65398,-0.35479 -9.48918,-2.86972 -4.62126,-2.40365 -7.5667,-5.72972 -2.88039,-3.3466 -4.00111,-7.46327 -1.07793,-4.09442 -0.31061,-8.91439 0.8101,-4.79772 3.59211,-10.14639 2.60395,-5.00636 6.15258,-8.37969 3.57088,-3.41612 7.75949,-4.98872 4.21086,-1.61538 8.86485,-1.26059 4.67624,0.312 9.51144,2.82693 4.62125,2.40365 7.50164,5.75025 2.94544,3.32607 4.02337,7.42048 1.14298,4.07388 0.33287,8.8716 -0.76731,4.81998 -3.52706,10.12586 z m -7.79456,-3.61926 q 2.06981,-3.97941 2.7069,-7.39925 0.70213,-3.44038 0.0999,-6.25442 -0.57996,-2.85683 -2.42149,-5.06507 -1.77648,-2.22877 -4.64337,-3.71992 -3.33757,-1.73597 -6.42371,-1.65584 -3.0211,0.0596 -5.69657,1.44064 -2.63269,1.4033 -4.87352,3.93463 -2.17578,2.51079 -3.82273,5.6772 -2.06981,3.97942 -2.77194,7.41979 -0.65935,3.46264 -0.0794,6.31947 0.60222,2.81404 2.3787,5.04281 1.79874,2.18598 4.70841,3.69939 3.33758,1.73597 6.35867,1.67637 3.08615,-0.0801 5.71883,-1.48343 2.67548,-1.38105 4.85126,-3.89184 2.24083,-2.53132 3.91003,-5.74053 z"
         style="font-style:normal;font-variant:normal;font-weight:normal;font-stretch:normal;font-size:98.77777863px;font-family:Consolas;-inkscape-font-specification:'Consolas, Normal';font-variant-ligatures:normal;font-variant-caps:normal;font-variant-numeric:normal;font-feature-settings:normal;text-align:start;writing-mode:lr-tb;text-anchor:start;fill:#ffffff;fill-opacity:1;stroke-width:42.19449997"
         id="path901"
         inkscape:connector-curvature="0" />
      <path
         d="m 264.37966,188.38066 7.10687,2.31966 -2.10347,7.53259 q 2.79565,-1.72576 5.18436,-2.6711 2.40367,-0.99119 4.50613,-1.3704 2.14831,-0.36424 4.14791,-0.11746 2.01458,0.20093 4.03201,0.85942 7.10687,2.31966 9.35225,7.72021 2.3062,5.36966 -0.44746,13.80621 l -9.80244,30.03226 -7.97804,-2.60401 9.59292,-29.39035 q 1.76594,-5.41039 0.58658,-8.63652 -1.1644,-3.27198 -5.15342,-4.57398 -1.46723,-0.4789 -3.03825,-0.48432 -1.51022,-0.0363 -3.38247,0.57024 -1.85728,0.56071 -4.24408,1.81108 -2.34096,1.26534 -5.43973,3.29804 l -9.96706,30.53662 -7.97803,-2.60401 z"
         style="font-style:normal;font-variant:normal;font-weight:normal;font-stretch:normal;font-size:98.77777863px;font-family:Consolas;-inkscape-font-specification:'Consolas, Normal';font-variant-ligatures:normal;font-variant-caps:normal;font-variant-numeric:normal;font-feature-settings:normal;text-align:start;writing-mode:lr-tb;text-anchor:start;fill:#ffffff;fill-opacity:1;stroke-width:42.19449997"
         id="path903"
         inkscape:connector-curvature="0" />
      <path
         d="m 369.84949,201.07188 -14.51643,0.18742 -0.0934,-7.2341 37.71377,-0.48692 0.0934,7.23409 -14.51643,0.18743 0.62579,48.46845 14.51642,-0.18742 0.0946,7.33055 -37.71376,0.48693 -0.0946,-7.33056 14.51642,-0.18742 z"
         style="font-style:normal;font-variant:normal;font-weight:normal;font-stretch:normal;font-size:98.77777863px;font-family:Consolas;-inkscape-font-specification:'Consolas, Normal';font-variant-ligatures:normal;font-variant-caps:normal;font-variant-numeric:normal;font-feature-settings:normal;text-align:start;writing-mode:lr-tb;text-anchor:start;fill:#ffffff;fill-opacity:1;stroke-width:42.19449997"
         id="path905"
         inkscape:connector-curvature="0" />
      <path
         d="m 403.22447,207.08107 7.5469,-1.3618 1.82181,8.73817 q 3.30793,-5.841 6.97879,-8.85588 3.71833,-3.02345 7.89523,-3.77715 7.40451,-1.33611 12.06674,2.77266 4.70969,4.10019 6.12929,13.59708 l -8.3538,1.5074 q -0.98816,-6.29105 -3.487,-8.73175 -2.45995,-2.49673 -6.25713,-1.81155 -1.66127,0.29977 -3.25866,1.22514 -1.55849,0.86935 -3.12234,2.52382 -1.52495,1.59845 -3.15018,3.99915 -1.62524,2.40071 -3.3811,5.70717 l 5.52429,30.61479 -8.35381,1.5074 z"
         style="font-style:normal;font-variant:normal;font-weight:normal;font-stretch:normal;font-size:98.77777863px;font-family:Consolas;-inkscape-font-specification:'Consolas, Normal';font-variant-ligatures:normal;font-variant-caps:normal;font-variant-numeric:normal;font-feature-settings:normal;text-align:start;writing-mode:lr-tb;text-anchor:start;fill:#ffffff;fill-opacity:1;stroke-width:42.19449997"
         id="path907"
         inkscape:connector-curvature="0" />
      <path
         d="m 492.67069,205.15127 q 0.60237,1.67982 0.96397,2.83112 0.3616,1.15129 0.62896,2.18267 l -32.00746,11.47748 q 2.50713,6.9917 7.76284,9.35987 5.23943,2.32276 12.59433,-0.31462 1.99763,-0.71632 3.94642,-1.56885 1.93251,-0.89793 3.69626,-1.83782 1.76374,-0.93989 3.32961,-1.86005 1.59498,-0.98185 2.90128,-1.91142 l 2.32806,6.49229 q -2.89785,2.0639 -6.78855,4.07392 -3.82901,2.03914 -8.18748,3.60203 -5.85668,2.10013 -10.64875,2.02516 -4.79206,-0.075 -8.59059,-2.09461 -3.76941,-2.08131 -6.64892,-5.96765 -2.85038,-3.94802 -4.83656,-9.48691 -1.72569,-4.81246 -1.894,-9.56853 -0.13919,-4.81775 1.33816,-8.98544 1.50647,-4.22937 4.68176,-7.52001 3.17529,-3.29064 8.07856,-5.04889 4.76707,-1.70941 8.98177,-1.52988 4.2147,0.17953 7.70482,2.05357 3.51924,1.81235 6.20683,5.30636 2.71671,3.43234 4.45868,8.29021 z m -8.62452,1.81168 q -0.95457,-3.09068 -2.57638,-5.32724 -1.6381,-2.28195 -3.83293,-3.54446 -2.14942,-1.27878 -4.77762,-1.46359 -2.64447,-0.23021 -5.64092,0.84428 -2.58783,0.92797 -4.3635,2.69195 -1.77567,1.76398 -2.66809,4.13353 -0.89242,2.36955 -0.93414,5.25387 -0.0417,2.88432 0.82203,6.00756 z"
         style="font-style:normal;font-variant:normal;font-weight:normal;font-stretch:normal;font-size:98.77777863px;font-family:Consolas;-inkscape-font-specification:'Consolas, Normal';font-variant-ligatures:normal;font-variant-caps:normal;font-variant-numeric:normal;font-feature-settings:normal;text-align:start;writing-mode:lr-tb;text-anchor:start;fill:#ffffff;fill-opacity:1;stroke-width:42.19449997"
         id="path909"
         inkscape:connector-curvature="0" />
      <path
         d="m 498.61292,163.02976 -12.51554,6.96838 -3.35515,-6.026 19.93216,-11.09779 29.75054,53.43337 12.59983,-7.01531 3.40207,6.11028 -33.92261,18.88737 -3.40207,-6.11028 13.90616,-7.74265 z"
         style="font-style:normal;font-variant:normal;font-weight:normal;font-stretch:normal;font-size:98.77777863px;font-family:Consolas;-inkscape-font-specification:'Consolas, Normal';font-variant-ligatures:normal;font-variant-caps:normal;font-variant-numeric:normal;font-feature-settings:normal;text-align:start;writing-mode:lr-tb;text-anchor:start;fill:#ffffff;fill-opacity:1;stroke-width:42.19449997"
         id="path911"
         inkscape:connector-curvature="0" />
      <path
         d="m 585.29676,177.65021 -4.20248,-4.97719 q -0.66523,5.51922 -2.79422,9.4294 -2.09123,3.88017 -5.60266,6.67117 -3.24713,2.58092 -6.21057,3.58092 -2.96343,0.99999 -5.61413,0.76564 -2.64296,-0.30212 -4.92091,-1.69529 -2.24019,-1.42319 -4.07085,-3.72639 -4.53162,-5.70136 -2.85371,-12.27193 1.68565,-6.63835 9.99227,-13.24072 l 7.85353,-6.24223 -2.64095,-3.32265 q -2.67096,-3.3604 -6.4137,-3.65093 -3.77274,-0.32828 -8.19035,3.18298 -3.20938,2.55091 -5.77303,5.75919 -2.5259,3.17827 -4.79817,7.14073 l -4.71169,-5.92791 q 0.88587,-1.44344 2.06604,-3.0592 1.18792,-1.68353 2.61691,-3.37383 1.42898,-1.6903 3.12904,-3.34961 1.67004,-1.69707 3.55791,-3.19761 3.43592,-2.73098 6.79242,-4.16662 3.3565,-1.43563 6.47481,-1.38812 3.15606,0.0175 6.03618,1.54817 2.88011,1.53066 5.40101,4.70228 l 20.76744,26.12808 z m -14.4323,-16.6849 -8.34438,6.63238 q -2.45422,1.9507 -3.83868,3.85205 -1.38445,1.90135 -1.79692,3.70785 -0.41246,1.8065 0.0415,3.54041 0.46175,1.66614 1.7222,3.25195 0.87031,1.09496 2.02042,1.84431 1.12009,0.7116 2.50547,0.90429 1.35536,0.15493 2.92372,-0.35233 1.56837,-0.50725 3.3052,-1.88775 2.26544,-1.80064 4.09237,-5.47074 1.83468,-3.73786 2.71096,-9.30161 z"
         style="font-style:normal;font-variant:normal;font-weight:normal;font-stretch:normal;font-size:98.77777863px;font-family:Consolas;-inkscape-font-specification:'Consolas, Normal';font-variant-ligatures:normal;font-variant-caps:normal;font-variant-numeric:normal;font-feature-settings:normal;text-align:start;writing-mode:lr-tb;text-anchor:start;fill:#ffffff;fill-opacity:1;stroke-width:42.19449997"
         id="path913"
         inkscape:connector-curvature="0" />
      <path
         d="m 566.7824,129.72501 5.00486,-5.55336 6.03018,4.98009 q -0.44233,-3.25549 -0.33662,-5.82228 0.0699,-2.59908 0.57678,-4.67446 0.53919,-2.1112 1.57643,-3.83847 1.00141,-1.75956 2.42215,-3.336 5.00486,-5.55335 10.85191,-5.41315 5.84352,0.0721 12.43589,6.01334 l 23.46742,21.14958 -5.61836,6.2341 -22.96582,-20.69753 q -4.22772,-3.81015 -7.65483,-4.04192 -3.46294,-0.26406 -6.27212,2.85298 -1.03326,1.1465 -1.67596,2.58007 -0.64622,1.36545 -0.8519,3.32272 -0.24151,1.92499 -0.0677,4.61386 0.20613,2.65305 0.80592,6.31016 l 23.86153,21.50476 -5.61836,6.2341 z"
         style="font-style:normal;font-variant:normal;font-weight:normal;font-stretch:normal;font-size:98.77777863px;font-family:Consolas;-inkscape-font-specification:'Consolas, Normal';font-variant-ligatures:normal;font-variant-caps:normal;font-variant-numeric:normal;font-feature-settings:normal;text-align:start;writing-mode:lr-tb;text-anchor:start;fill:#ffffff;fill-opacity:1;stroke-width:42.19449997"
         id="path915"
         inkscape:connector-curvature="0" />
      <path
         d="m 617.34938,110.45089 q -5.20481,-3.32016 -8.32255,-7.31128 -3.1584,-4.017064 -4.26337,-8.383302 -1.1197,-4.432839 -0.20841,-9.000325 0.89658,-4.634088 3.77578,-9.147632 1.24506,-1.951803 2.68221,-3.666649 1.4631,-1.755508 3.15896,-3.248119 l -17.15961,-10.946146 4.53928,-7.115949 57.4562,36.651432 -4.04644,6.34336 -7.88152,-4.684385 q 2.41671,5.717873 2.2857,10.497065 -0.131,4.77919 -2.69893,8.80479 -2.23073,3.49698 -5.40654,5.24691 -3.14987,1.70928 -6.93424,1.81241 -3.7991,0.0365 -8.11071,-1.45525 -4.3116,-1.49179 -8.86581,-4.39693 z m 4.16981,-7.52326 q 7.40058,4.72085 12.43497,4.90022 5.01966,0.11277 7.56165,-3.87216 1.71196,-2.68373 1.20639,-7.182484 -0.47962,-4.539415 -3.09544,-10.841976 L 620.67801,73.84378 q -1.92862,1.229716 -3.68406,3.084781 -1.7961,1.829128 -3.11898,3.902918 -3.6833,5.774084 -2.01744,11.413453 1.69179,5.598706 9.66166,10.682698 z"
         style="font-style:normal;font-variant:normal;font-weight:normal;font-stretch:normal;font-size:98.77777863px;font-family:Consolas;-inkscape-font-specification:'Consolas, Normal';font-variant-ligatures:normal;font-variant-caps:normal;font-variant-numeric:normal;font-feature-settings:normal;text-align:start;writing-mode:lr-tb;text-anchor:start;fill:#ffffff;fill-opacity:1;stroke-width:42.19449997"
         id="path917"
         inkscape:connector-curvature="0" />
    </g>
  </g>
</svg>
